<svg xmlns="http://www.w3.org/2000/svg" width="72.182" height="70.017" viewBox="0 0 72.182 70.017"><defs><style>.a{fill:#5deb3e;}.a,.b,.c,.d,.e,.f,.g,.h,.i{fill-rule:evenodd;}.b{fill:#0215a5;}.d{fill:#fff;}.e{fill:#2c2c2c;}.f{fill:#868686;}.g{fill:#858585;}.h{fill:gray;}.i{fill:#303030;}</style></defs><g transform="matrix(0.719, -0.695, 0.695, 0.719, -3.169, 48.278)"><path class="a" d="M11.752,7.607q1.235-1.366,2.472-2.732Q16.359,2.51,18.49.141A.368.368,0,0,1,18.836,0Q20.657.2,22.479.381c.389.04.778.085,1.168.119.141.012.192.058.179.21-.079.939-.148,1.879-.221,2.818-.048.608-.1,1.217-.143,1.826a.6.6,0,0,1-.159.391q-1.53,1.691-3.054,3.387-1.732,1.924-3.463,3.85c-.043.049-.1.092-.1.167a.578.578,0,0,1-.173.285c-.786.854-1.557,1.722-2.334,2.585-.763.848-1.531,1.691-2.287,2.545a.208.208,0,0,1-.189.086c-.331.307-.614.659-.916.993Q8.5,22.175,6.219,24.715q-.586.651-1.173,1.3c-.029.032-.045.084-.1.085,0-.249-.01-.5,0-.745.045-.981.1-1.961.148-2.941.019-.371.027-.743.057-1.113.012-.149-.033-.2-.177-.214-.748-.053-1.5-.11-2.242-.167l-2.619-.2c-.038,0-.089.01-.105-.035s.034-.082.062-.115q.617-.69,1.238-1.377l5.309-5.881c.053-.058.116-.112.112-.2a1.294,1.294,0,0,1,.3-.413c.7-.75,1.378-1.521,2.066-2.282.781-.864,1.57-1.722,2.336-2.6C11.517,7.719,11.594,7.6,11.752,7.607Z" transform="translate(25.986 4.347)"/><path class="a" d="M.547,4.509c.394.018.771.034,1.147.054l3.459.189c.205.011.411.015.616.037.163.018.225-.041.235-.2.037-.623.083-1.245.127-1.867q.092-1.281.187-2.561c0-.044.014-.088.026-.157A6.1,6.1,0,0,1,7,.713a18.718,18.718,0,0,1,4.118,9.629,16.148,16.148,0,0,1-.537,6.972,15.577,15.577,0,0,1-4.118,6.538,13.659,13.659,0,0,1-1.083.938.405.405,0,0,1-.31.092c-1.6-.143-3.2-.279-4.8-.418-.285-.025-.285-.035-.258-.311q.2-2.011.385-4.023c.025-.264.054-.528.077-.793a.2.2,0,0,1,.09-.166A7.052,7.052,0,0,0,3.191,15.4a10.386,10.386,0,0,0-.047-6.917A9.913,9.913,0,0,0,.679,4.693.31.31,0,0,1,.547,4.509Z" transform="translate(64.029 5.614)"/><path class="b" d="M0,4.589c.48.031.913.057,1.346.086q1.837.126,3.673.256c.122.009.162-.028.172-.148q.178-2.232.364-4.463c.008-.1.023-.193.037-.319.45.378.883.726,1.34,1.044a11.781,11.781,0,0,0,5.253,2.1A11.62,11.62,0,0,0,17.8,2.458a10.943,10.943,0,0,0,2.036-.99.4.4,0,0,1,.262-.062c1.653.131,3.307.263,4.961.382.2.014.184.113.178.244-.068,1.4-.15,2.8-.191,4.195a.929.929,0,0,1-.42.8A16.591,16.591,0,0,1,18.634,9.8a19.321,19.321,0,0,1-6.281.487A19.507,19.507,0,0,1,.977,5.549,8.381,8.381,0,0,1,0,4.589Z" transform="translate(4.851 24.547)"/><path class="b" d="M6,0c-.056.935-.112,1.815-.16,2.7-.035.643-.057,1.285-.093,1.928-.01.176.042.244.227.255,1.265.077,2.529.164,3.793.248.4.027.794.055,1.189.083.025.069-.035.083-.064.112a10.6,10.6,0,0,0-3.123,5.357,9.978,9.978,0,0,0,1.35,7.746.831.831,0,0,0,.128.177.847.847,0,0,1,.24.788c-.119,1.368-.219,2.738-.325,4.107a.974.974,0,0,0-.012.119c.008.161-.058.21-.223.2-1.164-.091-2.329-.172-3.493-.257-.463-.034-.926-.075-1.39-.1a.457.457,0,0,1-.328-.15A11.99,11.99,0,0,1,1.235,19.4a16.873,16.873,0,0,1-1.2-5.513A17.809,17.809,0,0,1,.523,8.337,15.039,15.039,0,0,1,5.645.26C5.745.178,5.854.105,6,0Z" transform="translate(0 4.562)"/><path class="a" d="M24.869,7.23c-.3.2-.6.4-.914.592a19.659,19.659,0,0,1-7.1,2.58,23.139,23.139,0,0,1-4.961.267A16.749,16.749,0,0,1,3.556,7.908,18.3,18.3,0,0,1,.166,5.117.518.518,0,0,1,0,4.678Q.2,2.436.372.194C.386.018.472-.01.62,0,1.446.075,2.273.144,3.1.215c.873.075,1.745.152,2.618.223a.46.46,0,0,1,.3.125,11.345,11.345,0,0,0,6,2.867,11.07,11.07,0,0,0,8.06-1.8c.043-.028.087-.088.137-.063s.033.106.027.161q-.188,2.1-.38,4.2c-.018.2-.029.4-.053.595-.02.159.035.228.2.241.675.052,1.349.111,2.023.169l2.815.242Z" transform="translate(43.177 24.147)"/><path class="b" d="M19.6,10.372A9.922,9.922,0,0,0,18.07,9.086a11.483,11.483,0,0,0-5.513-2.057,10.531,10.531,0,0,0-4.252.562A15.146,15.146,0,0,0,5.47,8.839.449.449,0,0,1,5.2,8.9l-3.4-.221C1.278,8.64.749,8.6.218,8.575.051,8.568-.011,8.528,0,8.345.071,7.339.126,6.332.188,5.326.217,4.863.255,4.4.274,3.935a.324.324,0,0,1,.156-.274A17.6,17.6,0,0,1,3.917,1.718,21.673,21.673,0,0,1,11.366.024a17.222,17.222,0,0,1,10.181,2.7,18.268,18.268,0,0,1,3.372,2.653c.04.04.1.07.112.158l-1.385-.095c-1.159-.081-2.317-.16-3.475-.247-.148-.011-.146.077-.154.169-.058.681-.113,1.362-.17,2.043C19.766,8.38,19.682,9.35,19.6,10.372Z" transform="translate(6.847 0)"/><path class="a" d="M4.739,9c.025-.371.049-.745.077-1.118.089-1.211.177-2.422.272-3.632.013-.165-.038-.213-.2-.228C3.58,3.9,2.274,3.765.967,3.634.646,3.6.327,3.567,0,3.533c.032-.117.116-.142.179-.183A20.759,20.759,0,0,1,5.843.854,22.975,22.975,0,0,1,13.031.019a17.142,17.142,0,0,1,7.553,1.929,12.394,12.394,0,0,1,3.1,2.308.757.757,0,0,1,.247.646c-.118,1.355-.211,2.712-.313,4.068-.01.126-.018.252-.021.378s-.052.189-.194.18c-.921-.058-1.841-.109-2.762-.164L18.3,9.22a.367.367,0,0,1-.255-.084,7.961,7.961,0,0,0-3.2-1.752,12.192,12.192,0,0,0-4.572-.41A11.047,11.047,0,0,0,6.36,7.98a6.55,6.55,0,0,0-1.518.978A.1.1,0,0,1,4.739,9Z" transform="translate(45.638 0.075)"/><path class="b" d="M10.187,5.653l-2.33,2.59Q6.651,9.581,5.443,10.918c-.082.091-.143.213-.282.237Q2.632,8.345.1,5.536A.344.344,0,0,1,0,5.255C.119,3.628.227,2,.347.374.379-.061.292-.016.76.024Q2.732.194,4.7.36a1.3,1.3,0,0,0,.238.019A1.153,1.153,0,0,1,5.97.909C7.364,2.5,8.779,4.073,10.187,5.653Z" transform="translate(27.551 6.301)"/><path class="b" d="M0,5.5c.3-.4.654-.748.985-1.117Q2.9,2.244,4.827.114C4.871.065,4.909.009,4.983,0l5.3,5.943c-.3-.02-.537-.034-.778-.053q-2.142-.17-4.283-.345c-.148-.012-.191.034-.205.177q-.235,2.306-.481,4.609a.207.207,0,0,1-.057.147Z" transform="translate(37.69 17.494)"/><path class="c" d="M1.75,3.836A2.988,2.988,0,0,1,.109,3.382C0,3.312-.037,3.253.047,3.135a5.545,5.545,0,0,0,.319-.5c.062-.11.114-.108.216-.045a2.174,2.174,0,0,0,1.027.342.405.405,0,0,0,.059,0c.148-.013.341.018.375-.178s-.157-.222-.288-.268c-.263-.089-.536-.152-.8-.247a1.017,1.017,0,0,1-.8-1.162A1.138,1.138,0,0,1,1.1.061a2.7,2.7,0,0,1,1.9.3c.1.051.1.1.049.187-.108.19-.213.382-.312.577-.046.091-.09.106-.183.056A2.3,2.3,0,0,0,1.695.9.629.629,0,0,0,1.557.9c-.111.015-.24.023-.269.161s.1.193.2.233c.179.07.362.129.546.184a3.66,3.66,0,0,1,.54.2.972.972,0,0,1,.618.994,1.091,1.091,0,0,1-.663,1A1.814,1.814,0,0,1,1.75,3.836Z" transform="translate(59.723 15.897)"/><path class="d" d="M2.011,2.152c.078-.055.08-.134.1-.2.2-.585.4-1.169.583-1.757A.232.232,0,0,1,2.964,0c.3.011.61.007.916,0,.13,0,.185.02.126.167Q3.323,1.891,2.649,3.616a.178.178,0,0,1-.191.133q-.438-.007-.876,0a.179.179,0,0,1-.193-.132Q.709,1.885.02.155C-.025.04,0,0,.127,0c.332,0,.664.008,1,0,.144,0,.2.064.235.185.191.594.387,1.186.583,1.778C1.96,2.026,1.986,2.086,2.011,2.152Z" transform="translate(21.587 15.94)"/><path class="e" d="M.859,1.592A.882.882,0,0,1,0,.8.736.736,0,0,1,.569.02.832.832,0,0,1,1.3.242c.09.071.016.131-.029.183-.195.225-.39.451-.592.67-.121.131-.07.186.073.228A.549.549,0,0,0,1.419.908c.03-.1,0-.3.18-.238.13.043.062.212.034.32A.811.811,0,0,1,.859,1.592Z" transform="translate(40.975 11.844)"/><path class="e" d="M.853,1.592A.881.881,0,0,1,.006.818.732.732,0,0,1,.553.023a.83.83,0,0,1,.736.208c.1.076.029.139-.021.2-.2.225-.391.45-.593.669-.106.116-.08.175.061.221A.549.549,0,0,0,1.419.9c.028-.1.007-.28.166-.237.143.038.076.2.052.309A.811.811,0,0,1,.853,1.592Z" transform="translate(35.956 17.541)"/><path class="e" d="M.851,1.592A.882.882,0,0,1,.006.815.732.732,0,0,1,.556.023a.828.828,0,0,1,.735.21c.1.078.024.141-.025.2-.2.225-.39.451-.592.67-.11.12-.07.175.066.219A.539.539,0,0,0,1.4.958.927.927,0,0,0,1.439.8c.014-.087.05-.164.15-.144s.069.116.067.183A.815.815,0,0,1,.851,1.592Z" transform="translate(37.669 15.589)"/><path class="e" d="M.76,0a.535.535,0,0,1,.364.136c.232.2.459.4.687.6.038.034.1.068.056.13s-.08.141-.147.109c-.159-.073-.141.034-.154.126a.678.678,0,0,1-.552.574A.468.468,0,0,1,.521,1.01a1.2,1.2,0,0,1,.4-.489C.955.491,1.022.47,1.007.405S.929.318.873.3A.4.4,0,0,0,.417.455,1.118,1.118,0,0,0,.223.777a.094.094,0,0,1-.14.061C.029.817,0,.791,0,.722A.969.969,0,0,1,.76,0Z" transform="translate(38.758 14.31)"/><path class="e" d="M1.592.931a.872.872,0,0,1-.683.738C.845,1.676.807,1.66.79,1.6s-.026-.13.063-.159a1,1,0,0,0,.3-.15.484.484,0,0,0,.175-.211A.218.218,0,0,0,1.3.835.186.186,0,0,0,1.06.8C.9.884.749.982.585,1.054A.4.4,0,0,1,.023.812a.4.4,0,0,1,0-.254A.857.857,0,0,1,.562.016C.625-.012.678-.008.707.067S.74.195.655.23A.8.8,0,0,0,.33.454C.257.545.2.644.283.759S.473.828.569.78C.724.7.868.6,1.027.542A.405.405,0,0,1,1.592.931Z" transform="translate(39.886 13.059)"/><path class="e" d="M.378.609a.892.892,0,0,1,.047-.5C.459.047.492-.04.587.021.663.07.743.112.68.24a.61.61,0,0,0,.153.816c.125.118.253.234.386.343.081.067.076.122.014.2s-.127.068-.2,0Q.554,1.173.07.747C0,.687-.031.631.039.546S.18.48.256.544C.288.572.315.619.378.609Z" transform="translate(35.01 18.508)"/><path class="e" d="M1.767,1.451a.245.245,0,0,1-.11.135c-.077.037-.123-.03-.17-.071Q.9,1,.312.474C.227.4.144.323.057.252s-.067-.127,0-.2A.112.112,0,0,1,.24.045L1.7,1.337C1.731,1.366,1.772,1.395,1.767,1.451Z" transform="translate(36.493 16.36)"/><path class="e" d="M1.082,2.192A1.063,1.063,0,0,1,0,1.087a1.1,1.1,0,1,1,2.2.033A1.076,1.076,0,0,1,1.082,2.192Z" transform="translate(69.953 12.603)"/><path class="e" d="M.731.5.216.587C.118.6.031.612,0,.479S.072.332.167.315C.7.223,1.236.126,1.772.036c.092-.015.214-.1.268.061S1.953.272,1.852.31c.4.437.464.788.205,1.1A.912.912,0,0,1,.9,1.6C.552,1.385.5,1.049.731.5Z" transform="translate(70.026 15.184)"/><path class="e" d="M0,.794A.785.785,0,0,1,.875,0,.76.76,0,0,1,1.64.856a.764.764,0,0,1-.782.653C.736,1.5.728,1.418.727,1.326c0-.285,0-.571-.011-.856C.713.287.662.259.5.344a.545.545,0,0,0-.206.743.756.756,0,0,0,.086.134c.057.069.03.121-.027.17S.243,1.407.2,1.361A.777.777,0,0,1,0,.794Z" transform="translate(70.794 17.255)"/><path class="e" d="M.818,0A.841.841,0,0,1,1.6.493a.709.709,0,0,1-.088.786.788.788,0,0,1-.993.153C.43,1.373.454,1.316.49,1.247.63.983.77.72.906.455.986.3.959.258.786.25A.554.554,0,0,0,.235.811.494.494,0,0,0,.244.93c.019.086-.006.144-.1.162C.035,1.114.036,1.023.02.956A.8.8,0,0,1,.818,0Z" transform="translate(69.371 22.945)"/><path class="e" d="M1.72.705a.984.984,0,0,1-.074.428.537.537,0,0,1-.627.373c-.307-.05-.609-.131-.913-.2C.053,1.294,0,1.278,0,1.208s0-.15.08-.164C.213,1.021.169.95.148.871A.783.783,0,0,1,.2.29.48.48,0,0,1,.734.012a.491.491,0,0,1,.385.473,1.284,1.284,0,0,1-.13.6c-.067.154.009.178.131.165A.387.387,0,0,0,1.456.925,1.31,1.31,0,0,0,1.484.55c0-.08.01-.148.113-.15s.118.069.123.146C1.723.6,1.72.653,1.72.705Z" transform="translate(70.393 20.128)"/><path class="e" d="M.5.277A.264.264,0,0,0,.231.513C.217.571.234.66.124.637A.142.142,0,0,1,0,.465.447.447,0,0,1,.637.037c.225.08.447.167.671.251.088.033.178.081.228-.053A.077.077,0,0,1,1.649.19c.049.018.122.035.106.1-.048.191.1.2.212.246S2.157.6,2.1.741s-.144.077-.226.047C1.56.675,1.614.71,1.514.963c-.033.084-.049.192-.188.134S1.264.959,1.29.883c.1-.274.1-.274-.171-.374Z" transform="translate(70.012 21.926)"/><path class="e" d="M1.242.4a.866.866,0,0,1,.269.436c.008.076.033.171-.083.189A.148.148,0,0,1,1.234.889.624.624,0,0,0,.618.324C.46.3.3.29.144.277.051.269,0,.235,0,.129S.066-.008.159,0Q.8.067,1.443.136c.075.008.149.028.131.133C1.56.351,1.524.4,1.432.4,1.386.4,1.341.4,1.242.4Z" transform="translate(70.759 19.09)"/><path class="f" d="M.614,1.632A.952.952,0,0,1,.085,1.5c-.062-.034-.113-.074-.067-.157A.112.112,0,0,1,.2,1.292a.771.771,0,0,0,.474.124.251.251,0,0,0,.251-.191c.026-.14-.081-.2-.191-.241C.594.934.451.9.317.844A.389.389,0,0,1,.033.435a.44.44,0,0,1,.336-.4.894.894,0,0,1,.657.074c.066.03.117.068.07.152A.113.113,0,0,1,.933.323.828.828,0,0,0,.569.232C.441.237.32.269.3.413S.384.6.485.634C.6.679.725.71.843.756c.283.109.382.262.338.508A.476.476,0,0,1,.7,1.631C.664,1.634.631,1.632.614,1.632Z" transform="translate(19.098 30.373)"/><path class="g" d="M.773,2.048a.4.4,0,0,1-.451-.371C.289,1.435.266,1.19.245.946.236.833.229.744.082.72A.112.112,0,0,1,.064.512C.236.457.2.341.18.225S.147.025.3,0c.17-.025.139.1.149.191C.471.447.474.449.738.428c.084-.007.2-.053.216.1s-.1.129-.19.138C.506.686.5.687.521.944c.013.2.027.4.052.594S.7,1.813.9,1.782c.063-.01.149-.077.172.049a.143.143,0,0,1-.121.176C.883,2.027.811,2.04.773,2.048Z" transform="translate(20.477 29.868)"/><path class="g" d="M.481,2.1a.415.415,0,0,1-.449-.536C.069,1.352.111,1.137.15.922.169.811.2.709.062.631-.025.581-.024.45.086.435.258.413.257.3.284.186.3.1.288-.018.435,0S.576.137.544.244c-.057.189.019.275.2.289A.708.708,0,0,1,.827.545C.9.558.962.575.954.666S.886.78.8.781C.689.783.553.672.469.8a.92.92,0,0,0-.082.324q-.043.215-.078.431a.251.251,0,0,0,.221.333c.064.016.2-.063.18.1C.689,2.123.569,2.1.481,2.1Z" transform="translate(16.168 29.663)"/><path class="f" d="M1.38.3a.751.751,0,0,1,.251.37.565.565,0,0,1-.522.752c-.282.034-.568.039-.853.054-.092.005-.177,0-.178-.129s.077-.14.171-.146c.238-.015.476-.027.714-.045.29-.022.438-.167.432-.414A.414.414,0,0,0,.925.316C.687.319.449.342.211.354.111.358,0,.376,0,.22,0,.081.1.085.191.079.575.054.958.029,1.342.006c.1-.006.205-.032.237.111S1.5.272,1.38.3Z" transform="translate(3.149 17.538)"/><path class="f" d="M.2,0,2.029.232c.1.012.2.016.177.171s-.13.1-.212.093C1.383.425.772.348.161.274.059.262-.017.241,0,.105S.114,0,.2,0Z" transform="translate(2.623 15.808)"/><path class="f" d="M1.082.321.172.277C.08.273,0,.26,0,.138,0,0,.092,0,.189,0L1.454.076c.089,0,.135.038.12.135C1.56.292,1.538.35,1.438.34,1.319.328,1.2.324,1.082.317Z" transform="translate(3.187 16.74)"/><path class="h" d="M.279.128C.28.223.273.3.154.293.065.287,0,.261,0,.155S.028,0,.134,0,.288.031.279.128Z" transform="translate(2.586 16.698)"/><path class="e" d="M.873.266A1.305,1.305,0,0,1,1.181.23a.534.534,0,0,1,.493.4c.029.108.076.138.184.107a.594.594,0,0,1,.683.9c-.121.236-.247.469-.369.705-.04.078-.077.137-.181.084s-.116-.111-.064-.207c.119-.222.238-.444.349-.67.129-.263.086-.46-.115-.573a.409.409,0,0,0-.583.2c-.125.219-.239.444-.354.668-.048.093-.1.128-.2.073S.94,1.8.981,1.726c.128-.247.267-.49.377-.745a.364.364,0,0,0-.3-.546A.417.417,0,0,0,.637.673C.515.893.4,1.117.283,1.341c-.042.08-.075.155-.193.1s-.1-.131-.05-.224C.222.869.4.519.585.175.625.1.627-.038.783.01.921.053.912.15.873.266Z" transform="translate(47.807 28.239)"/><path class="e" d="M1.646.826a.8.8,0,0,1-.838.819A.8.8,0,0,1,0,.815.8.8,0,0,1,.842,0,.778.778,0,0,1,1.646.826Z" transform="translate(56.492 30.477)"/><path class="e" d="M1.668.818a.824.824,0,0,1-.825.838A.838.838,0,0,1,0,.828.836.836,0,0,1,.822,0,.822.822,0,0,1,1.668.818Z" transform="translate(50.648 29.585)"/><path class="e" d="M1.558.7c-.03.337-.128.663-.188.995-.017.1-.076.112-.161.093a.116.116,0,0,1-.1-.157c.045-.214.089-.428.132-.643A1.506,1.506,0,0,0,1.271.77.382.382,0,0,0,.939.327.409.409,0,0,0,.46.622C.388.877.338,1.138.283,1.4c-.02.1-.033.184-.172.154s-.117-.117-.1-.213C.1.95.181.561.265.172.281.1.282,0,.393,0A.138.138,0,0,1,.556.132c.02.129.1.044.146.022a.619.619,0,0,1,.592.026A.5.5,0,0,1,1.558.7Z" transform="translate(52.557 30.052)"/><path class="e" d="M.413,1.622c0,.151.09.236.309.236.054,0,.13-.044.146.048a.154.154,0,0,1-.122.179.442.442,0,0,1-.6-.432C.153,1.428.176,1.2.192.979.2.855.232.733.066.666a.1.1,0,0,1,0-.184C.241.441.236.325.243.2.248.1.229-.018.39,0S.523.124.5.227C.463.412.533.505.726.5.766.5.806.5.845.506A.108.108,0,0,1,.959.636c0,.088-.06.1-.135.108C.716.752.588.661.5.762S.457,1,.448,1.129C.436,1.274.427,1.419.413,1.622Z" transform="translate(55.253 30.017)"/><path class="e" d="M.32.411A.754.754,0,0,1,.706.027C.764.008.844-.038.87.062.892.145.936.235.807.3a.625.625,0,0,0-.424.788c.018.131.034.263.049.394.012.1,0,.189-.129.2C.16,1.695.168,1.586.157,1.5Q.084.924.013.352C0,.25-.039.13.124.106S.269.2.283.3A.944.944,0,0,0,.32.411Z" transform="translate(58.45 30.307)"/><path class="e" d="M0,1.414C.06.988.119.562.173.135.187.022.245-.01.348,0s.1.066.093.142c-.057.433-.115.866-.169,1.3-.012.1-.055.137-.158.121S-.011,1.5,0,1.414Z" transform="translate(54.484 30.403)"/><path class="i" d="M.157.287C.075.279-.007.268,0,.156.006.063.03-.012.152,0c.1.011.167.032.157.151C.3.25.257.3.157.287Z" transform="translate(54.711 29.797)"/><path class="g" d="M0,.832A.815.815,0,0,1,1.073.046c.075.027.182.039.143.169S1.105.33,1,.294A.523.523,0,0,0,.325.548a.629.629,0,0,0,.2.764.54.54,0,0,0,.735-.1.5.5,0,0,0,.051-.061.117.117,0,0,1,.184-.041c.094.06.046.122.008.185a.827.827,0,0,1-.869.345.821.821,0,0,1-.624-.7C0,.9,0,.853,0,.832Z" transform="translate(13.899 3.27)"/><path class="e" d="M1.4,2c-.416.4-.751.457-1.08.2a.919.919,0,0,1-.2-1.155C.35.677.691.625,1.257.881,1.224.641,1.2.413,1.16.186,1.145.087,1.151.022,1.273,0s.141.05.154.146c.084.6.173,1.195.256,1.792.012.089.073.208-.07.253S1.44,2.119,1.4,2Z" transform="translate(54.398 2.107)"/><path class="e" d="M.352,1.389A2.889,2.889,0,0,0,.279,1.9c-.013.1-.031.179-.168.163s-.113-.1-.1-.187C.069,1.32.127.767.2.215.205.134.161,0,.33,0S.471.132.466.283a.752.752,0,0,1,.751-.2A.682.682,0,0,1,1.6.375a.916.916,0,0,1-.142,1.131C1.147,1.788.824,1.754.352,1.389Z" transform="translate(58.195 2.695)"/><path class="e" d="M.859,1.649a.753.753,0,0,1-.776-.46A.845.845,0,0,1,.228.242a.7.7,0,0,1,.8-.194A.793.793,0,0,1,1.518.8c-.011.129-.1.123-.186.124-.285,0-.571,0-.855.007-.182,0-.212.058-.128.217a.54.54,0,0,0,.721.221.7.7,0,0,0,.152-.093.107.107,0,0,1,.171.018c.066.073.015.123-.035.167A.716.716,0,0,1,.859,1.649Z" transform="translate(56.408 2.629)"/><path class="e" d="M1.67.847A.835.835,0,0,1,0,.828.847.847,0,0,1,.847,0,.836.836,0,0,1,1.67.847Z" transform="translate(61.004 3.316)"/><path class="e" d="M.973,1.446,1.8.676A.794.794,0,0,1,1.916.57c.093-.056.168.01.23.062S2.139.727,2.1.759c-.434.389-.865.783-1.309,1.16A.507.507,0,0,1,.09,1.907c-.051-.046-.132-.089-.064-.177a.119.119,0,0,1,.2-.017.3.3,0,0,0,.349.056c.14-.067.145-.189.149-.319C.737,1.025.75.6.771.179.774.114.726-.01.855,0a.178.178,0,0,1,.178.214C1,.538.992.862.974,1.186.97,1.252.973,1.317.973,1.446Z" transform="translate(62.377 3.824)"/><path class="e" d="M.684.167Q.538.847.391,1.527c-.039.181-.083.362-.121.543-.02.094-.059.134-.165.113S-.011,2.1.009,2.01Q.214,1.068.417.126C.433.05.456-.017.559,0S.7.064.684.167Z" transform="translate(60.188 2.374)"/><path class="f" d="M1.152.322c.461.034.718.281.7.638a.55.55,0,0,1-.165.374c-.216.217-.435.428-.652.643-.058.057-.107.095-.181.015s-.1-.136-.01-.218q.275-.261.541-.529c.212-.215.232-.408.068-.6A.415.415,0,0,0,.819.625c-.185.16-.354.34-.531.51C.22,1.2.156,1.272.055,1.172S.024,1,.1.93C.382.66.661.385.947.118c.061-.057.108-.185.24-.074S1.237.224,1.152.322Z" transform="translate(32.578 11.76)"/><path class="g" d="M.166,1.664A.2.2,0,0,1,.02,1.556c-.052-.07.01-.109.05-.149Q.62.874,1.172.342l.315-.3c.075-.073.129-.025.185.029s.069.105,0,.167Q.957.921.24,1.61A.663.663,0,0,1,.166,1.664Z" transform="translate(30.834 9.508)"/><path class="c" d="M4.784,1.123A2.541,2.541,0,0,0,2.083.047a2.486,2.486,0,0,0,.532,4.935,2.217,2.217,0,0,0,.486-.04A2.485,2.485,0,0,0,4.784,1.123Zm-2.195,2.7A1.293,1.293,0,0,1,1.323,2.485,1.275,1.275,0,0,1,2.594,1.163,1.294,1.294,0,0,1,3.87,2.509,1.269,1.269,0,0,1,2.589,3.821Z" transform="translate(49.397 14.746)"/><path class="d" d="M4.517,2A2.274,2.274,0,0,0,2.431.047C1.7-.045.973.032.244,0,.044-.005,0,.068,0,.254.009.977,0,1.7,0,2.425V3q0,.816,0,1.633c0,.094-.009.194.135.191a21.706,21.706,0,0,0,2.308-.044A2.36,2.36,0,0,0,4.517,2ZM2.12,3.667c-.224.021-.451.009-.676.018-.132,0-.171-.058-.17-.181,0-.365,0-.73,0-1.1s0-.717,0-1.075c0-.091,0-.178.129-.175a4.464,4.464,0,0,1,.854.031,1.2,1.2,0,0,1,.968,1.369A1.176,1.176,0,0,1,2.12,3.667Z" transform="translate(12.552 14.821)"/><path class="c" d="M3.86,1.022A1.578,1.578,0,0,0,2,.046a1.6,1.6,0,0,0-.761.5c0-.159-.007-.258,0-.356C1.256.069,1.2.035,1.084.038.772.044.46.044.148.038.036.036,0,.073,0,.186Q0,2.457,0,4.727c0,.119.046.144.152.142.279-.005.6,0,.883,0,.254,0,.3,0,.3-.256V3.373c0-.016.025.008.042.027a1.518,1.518,0,0,0,2.467-.5A2.286,2.286,0,0,0,3.86,1.022ZM2.017,2.774a.8.8,0,0,1-.783-.85.821.821,0,0,1,.787-.873A.827.827,0,0,1,2.8,1.92.8.8,0,0,1,2.017,2.774Z" transform="translate(55.258 15.897)"/><path class="d" d="M3.7,1.56A1.75,1.75,0,0,0,2.7.169,1.94,1.94,0,0,0,.462.645a2.036,2.036,0,0,0-.2,2.292,1.95,1.95,0,0,0,2.009.888A1.83,1.83,0,0,0,3.46,3.237c.1-.1.1-.169-.016-.254-.153-.116-.3-.24-.445-.368-.083-.074-.149-.09-.237-.005a1.008,1.008,0,0,1-.319.2A.893.893,0,0,1,1.3,2.488c-.092-.169-.078-.207.111-.209.352,0,.721,0,1.049,0h0c.329,0,.722,0,1.08,0,.134,0,.195-.047.2-.185A2.821,2.821,0,0,0,3.7,1.56Zm-1.311.048c-.172,0-.343,0-.515,0s-.357,0-.535,0c-.1,0-.124-.041-.1-.135A.65.65,0,0,1,1.861.958a.641.641,0,0,1,.655.5C2.544,1.57,2.509,1.611,2.393,1.608Z" transform="translate(17.648 15.89)"/><path class="f" d="M.5.891c.277.021.554.049.831.074.107.01.175-.018.186-.145A.734.734,0,0,0,.771,0,.746.746,0,0,0,.026.619a.811.811,0,0,0,.391.934A.866.866,0,0,0,1.3,1.49c.049-.042.094-.081.037-.147C1.3,1.3,1.26,1.252,1.19,1.292c-.04.023-.08.049-.122.068a.558.558,0,0,1-.727-.218C.307,1.079.263,1.008.3.937S.43.886.5.891ZM.327.546A.529.529,0,0,1,.782.216a.468.468,0,0,1,.432.347c.042.153.008.2-.116.191C.853.73.637.706.42.688.322.679.293.641.327.546Z" transform="translate(17.253 30.317)"/><path class="f" d="M2.149,1.217c-.058-.077-.141,0-.212-.049.209-.48.13-.847-.218-1.055A.918.918,0,0,0,.569.338c-.254.334-.172.7.246,1.1-.037.047-.094.043-.145.055-.168.038-.336.077-.5.112-.108.023-.193.06-.157.2s.125.088.208.073c.046-.009.091-.02.136-.03.556-.124,1.113-.247,1.669-.374C2.182,1.43,2.23,1.323,2.149,1.217Zm-.925.142A.554.554,0,0,1,.676.815.578.578,0,0,1,1.3.287.484.484,0,0,1,1.832.8.584.584,0,0,1,1.224,1.359Z" transform="translate(2.994 19.358)"/><path class="f" d="M2.175.636C2.2.469,2.061.5,1.98.476Q1.126.249.267.037C.175.015.058-.063.01.108S.1.271.191.3C.393.353.6.4.812.46.384.869.3,1.187.5,1.524a.933.933,0,0,0,1.055.354.724.724,0,0,0,.379-.307A.758.758,0,0,0,1.9.755C2.038.763,2.153.8,2.175.636ZM1.261,1.648a.6.6,0,0,1-.613-.557A.558.558,0,0,1,1.215.566a.592.592,0,0,1,.6.572A.527.527,0,0,1,1.261,1.648Z" transform="translate(3.062 13.6)"/><path class="f" d="M1.63,1.954C1.615,1.365,1.589.777,1.566.188,1.562.1,1.575,0,1.446,0s-.133.1-.134.194c0,.209,0,.419,0,.658C.826.554.463.566.2.863A.923.923,0,0,0,.191,2a.728.728,0,0,0,.434.259.7.7,0,0,0,.707-.306c.039.141.006.292.187.265S1.632,2.048,1.63,1.954Zm-.813.074a.543.543,0,0,1-.533-.593A.512.512,0,0,1,.792.87a.557.557,0,0,1,.557.575A.564.564,0,0,1,.817,2.028Z" transform="translate(17.527 2.081)"/><path class="f" d="M.959.025A.79.79,0,0,0,0,.842a.742.742,0,0,0,.412.721.8.8,0,0,0,.851-.035c.053-.034.125-.07.066-.155a.122.122,0,0,0-.187-.038.755.755,0,0,1-.163.073.543.543,0,0,1-.665-.294C.237.925.278.869.479.894l.77.093c.228.027.26,0,.257-.225A.717.717,0,0,0,.959.025Zm.054.737C.822.741.631.721.44.7.349.684.283.645.341.538a.487.487,0,0,1,.413-.3A.424.424,0,0,1,1.186.5C1.293.718,1.252.778,1.013.762Z" transform="translate(19.538 2.796)"/><path class="f" d="M.824,0A.831.831,0,0,0,0,.842a.806.806,0,0,0,.815.822A.816.816,0,0,0,1.649.836.814.814,0,0,0,.824,0ZM.844,1.419A.6.6,0,0,1,.265.806.567.567,0,0,1,.8.246a.593.593,0,0,1,.575.615A.555.555,0,0,1,.844,1.419Z" transform="translate(15.532 2.883)"/><g transform="translate(36.192 2.871)"><path class="a" d="M.466,0a2.016,2.016,0,0,1,.2.06c.1.038.115.1.039.18C.553.413.4.589.251.765.194.831.144.837.1.757A.487.487,0,0,1,.046.266.469.469,0,0,1,.466,0Z" transform="translate(5.024 9.221)"/><path class="a" d="M0,.477A.482.482,0,0,1,.23.063a.453.453,0,0,1,.456,0c.088.042.1.1.031.17C.576.389.439.552.3.711.175.853.131.847.057.671A1.616,1.616,0,0,1,0,.477Z" transform="translate(0 14.923)"/><path class="a" d="M0,.441A.46.46,0,0,1,.665.048C.771.1.784.154.7.243.56.4.419.56.287.724.183.853.119.819.062.69A.691.691,0,0,1,0,.441Z" transform="translate(1.716 12.972)"/><path class="a" d="M.712.327a.594.594,0,0,1-.342.5A.259.259,0,0,1,.093.772.271.271,0,0,1,.019.463a.862.862,0,0,1,.4-.449C.533-.054.707.141.712.327Z" transform="translate(3.285 12.02)"/><path class="a" d="M.79,1.625A.784.784,0,0,1,0,.843.885.885,0,0,1,.89,0a.812.812,0,0,1,.8.8A.857.857,0,0,1,.79,1.625Z" transform="translate(34.015 10.017)"/><path class="a" d="M0,.559A.572.572,0,0,1,.6,0a.551.551,0,0,1,.555.537.58.58,0,0,1-.622.541A.5.5,0,0,1,0,.559Z" transform="translate(34.643 12.688)"/><path class="a" d="M.505.477A.428.428,0,0,1,.391.765C.3.856.188.95.064.9-.042.866.016.729.011.635,0,.464.009.292,0,.121,0,.01.042-.018.146.01A.486.486,0,0,1,.505.477Z" transform="translate(35.513 14.673)"/><path class="a" d="M.676.405A.451.451,0,0,1,.088.84C.008.814-.024.777.019.7.132.487.243.277.355.067.4-.025.461-.014.526.05A.488.488,0,0,1,.676.405Z" transform="translate(33.934 20.503)"/><path class="a" d="M.617.354A1.274,1.274,0,0,1,.486.809.131.131,0,0,1,.321.881.411.411,0,0,1,0,.5.475.475,0,0,1,.227.022C.423-.06.613.092.617.354Z" transform="translate(34.502 17.533)"/><path class="a" d="M0,.561A.524.524,0,0,1,.537,0,.565.565,0,0,1,1.1.592a.554.554,0,0,1-.546.567A.56.56,0,0,1,0,.561Z" transform="translate(20.579 27.849)"/><path class="a" d="M1.111.571a.583.583,0,0,1-.562.6A.566.566,0,0,1,0,.6.607.607,0,0,1,.571,0,.551.551,0,0,1,1.111.571Z" transform="translate(14.733 26.954)"/><path class="a" d="M1.069.6a.545.545,0,0,1-.517.569A.588.588,0,0,1,0,.556.541.541,0,0,1,.53,0,.579.579,0,0,1,1.069.6Z" transform="translate(18.481 0.167)"/><path class="a" d="M1.068.574a.544.544,0,0,1-.531.6A.567.567,0,0,1,0,.591.591.591,0,0,1,.557,0,.544.544,0,0,1,1.068.574Z" transform="translate(22.387 0.102)"/><path class="a" d="M.428.484.192.5C.128.5.053.536.013.461S.022.332.049.273A.449.449,0,0,1,.53,0,.424.424,0,0,1,.907.33c.034.1.012.154-.1.152s-.25,0-.376,0Z" transform="translate(20.51 0)"/><path class="a" d="M1.111.56a.589.589,0,0,1-.552.615A.562.562,0,0,1,0,.617.61.61,0,0,1,.557,0,.555.555,0,0,1,1.111.56Z" transform="translate(25.091 0.69)"/></g><path class="f" d="M1.513.337C1.526.3,1.528.281,1.54.271c.091-.082.078-.15-.009-.23s-.141-.018-.2.037Q.7.685.074,1.292c-.069.066-.113.122-.025.214s.148.043.215-.019c.124-.115.249-.228.383-.35.183.642.413.836.9.777a.894.894,0,0,0,.727-.831C2.279.669,2.027.418,1.513.337ZM1.389,1.663a.516.516,0,0,1-.512-.523.628.628,0,0,1,.6-.614A.512.512,0,0,1,2,1.044.654.654,0,0,1,1.389,1.663Z" transform="translate(29.083 8.494)"/><path class="f" d="M1.044,0C.964-.01.937.037.911.093s.006.1.057.127A1.869,1.869,0,0,1,1.23.4.437.437,0,0,1,1.4.89a.183.183,0,0,1-.108.135c-.08.023-.093-.059-.125-.1A1.153,1.153,0,0,0,.632.462a.445.445,0,0,0-.48.1.423.423,0,0,0-.134.451.683.683,0,0,0,.562.525c.082.016.148.016.077.128-.055.086.037.129.087.174s.108,0,.15-.041c.209-.2.418-.408.624-.614A.565.565,0,0,0,1.7.78,1.015,1.015,0,0,0,1.044,0ZM.767,1.412a.557.557,0,0,1-.49-.376A.264.264,0,0,1,.346.761.259.259,0,0,1,.638.7a.825.825,0,0,1,.437.441C1.134,1.261.956,1.411.767,1.412Z" transform="translate(31.451 10.579)"/></g></svg>