<svg xmlns="http://www.w3.org/2000/svg" width="120" height="91" viewBox="0 0 120 91"><defs><style>.a{fill:#ff857b;}.b{fill:#fff;fill-rule:evenodd;}</style></defs><g transform="translate(6552 2382)"><rect class="a" width="120" height="91" rx="25" transform="translate(-6552 -2382)"/><g transform="translate(-6522.425 -2369.145)"><path class="b" d="M-997.771-252.3a8.327,8.327,0,0,1,.777,1.378c.233.674.673.7,1.241.612a33.375,33.375,0,0,1,6.477-.252,17.133,17.133,0,0,1,7.891,1.972,8.223,8.223,0,0,1,4.2,4.8,6.276,6.276,0,0,1,.419,2.117c-.434.234-.613-.016-.689-.389a4,4,0,0,0-.653-1.436c-.087-.13-.186-.272-.366-.223s-.188.225-.209.379c-.113.836.042,1.674-.021,2.51-.03.4-.093.774-.649.671-.315-.242-.25-.6-.247-.917a5.851,5.851,0,0,0-3.572-5.564,14.1,14.1,0,0,0-5.873-1.448,29.7,29.7,0,0,0-5.159.1c-.718.1-.839.247-.607.953.613,1.863,1.314,3.7,1.757,5.614.072.313.221.643-.045.946-.309.2-.5.027-.644-.225a3.979,3.979,0,0,1-.47-1.163,3.7,3.7,0,0,0-.741-1.541c-.1-.135-.2-.334-.411-.276s-.185.279-.187.449a8.086,8.086,0,0,0,.057,1.39c.049.3.012.585-.368.665-.376-.025-.426-.331-.515-.6-.5-1.531-1.008-3.06-1.571-4.57-.342-.918-.524-1.052-1.47-.861a59.178,59.178,0,0,0-6.475,1.692c-.16.052-.408.061-.414.266-.006.227.245.3.419.371,1.218.527,2.41,1.107,3.594,1.7.291.147.635.281.505.73-.306.375-.665.167-.964.035-1.315-.579-2.754-.792-4.055-1.4a1.828,1.828,0,0,0-.847-.158,6.107,6.107,0,0,1,1.2.85.55.55,0,0,1,.165.854.7.7,0,0,1-.8-.028c-.928-.458-1.9-.823-2.839-1.249a1.534,1.534,0,0,0-1.336-.016c-.942.425-1.911.79-2.839,1.247-.261.128-.522.25-.8.05-.205-.278-.058-.469.133-.687a6.382,6.382,0,0,1,1.78-1.122,2.211,2.211,0,0,0-1.379.156c-1.393.6-2.878.94-4.265,1.556-.253.112-.547.224-.791-.057-.16-.446.173-.583.469-.737q1.618-.842,3.287-1.582a2.5,2.5,0,0,0,.244-.1c.186-.108.489-.158.47-.406s-.331-.246-.531-.312a58.111,58.111,0,0,0-6.353-1.655c-.913-.193-1.165-.007-1.466.877-.534,1.567-1.1,3.123-1.593,4.7-.07.224-.166.41-.422.457-.477-.058-.456-.4-.408-.74a5.222,5.222,0,0,0,.086-1.577c-.027-.167.032-.39-.207-.426-.2-.03-.316.141-.4.3a5.545,5.545,0,0,0-.81,1.867,2.282,2.282,0,0,1-.392.975c-.168.251-.377.368-.669.187-.332-.5-.06-1,.086-1.456.229-.716.454-1.434.621-2.165.233-1.021.757-1.933,1.03-2.935.155-.568.049-.776-.5-.82a23.786,23.786,0,0,0-9.522.657,7.982,7.982,0,0,0-3.857,2.345,5.483,5.483,0,0,0-1.365,3.438c-.012.494.137,1.022-.207,1.474-.435.167-.613-.069-.671-.449a12.317,12.317,0,0,1-.041-1.247c-.019-.384.076-.889-.4-1.011-.522-.133-.59.41-.761.739s-.276.679-.757.485a7.737,7.737,0,0,1,2.888-5.851,14.434,14.434,0,0,1,8.043-3.035,34.53,34.53,0,0,1,8.255.14.779.779,0,0,0,.978-.512,14.458,14.458,0,0,1,.84-1.5,3.8,3.8,0,0,0,.819-.691,1.858,1.858,0,0,1,1.329-.606c.483-.046.82.23.734.689a7.979,7.979,0,0,1-.278,1.62c-.064.14-.13.28-.2.417-.379.71-.317.854.453,1.021a70.837,70.837,0,0,1,9.04,2.626,2.682,2.682,0,0,0,1.932,0,69.786,69.786,0,0,1,9.042-2.624c.729-.159.809-.283.58-.907-.125-.513-.274-1.018-.42-1.524-.111-.387-.249-.826.139-1.091a1.151,1.151,0,0,1,1.362.081C-998.533-252.993-998.216-252.568-997.771-252.3Z" transform="translate(1044.528 261.039)"/><path class="b" d="M-1022.875-160.228c-.087-.1-.22-.186-.253-.3-.286-.977-1.015-.8-1.745-.719a30.977,30.977,0,0,1-9.494-.2,12.516,12.516,0,0,1-6.447-2.989,8.392,8.392,0,0,0-.9-1.123,3.968,3.968,0,0,1-.832-1.478c-.09-.406-.261-.83.223-1.108a1.358,1.358,0,0,1,1.468.239c.249.334.545.625.8.953a2.727,2.727,0,0,0,.933.724.5.5,0,0,1,.145.143c.135.242.118.633.565.569a.56.56,0,0,1,.184.052c.4.5,1.029.523,1.563.748a15.962,15.962,0,0,0,5.526,1.212,37.543,37.543,0,0,0,5.678-.1c.2-.043.517.053.413-.353a.555.555,0,0,1-.043-.2,12.45,12.45,0,0,1-.554-2.834c-.012-.436-.219-.965.387-1.2a1.2,1.2,0,0,1,1.515.627,3.262,3.262,0,0,1,.545,1.2c.057.353.429.415.64.628a4.593,4.593,0,0,1,.353.919.766.766,0,0,0,1.028.552,74.166,74.166,0,0,0,7.568-2.057c.335-.024.576-.118.205-.439a2.6,2.6,0,0,0-.87-.616.407.407,0,0,1-.321-.5.448.448,0,0,1,.439-.34,4.369,4.369,0,0,1,1.825.113c.4.128.81.22,1.194.371,1.481.583,2.861.109,4.244-.357a4.169,4.169,0,0,1,1.695-.136c.234.018.442.1.493.361.057.285-.147.385-.36.507a2.112,2.112,0,0,0-.836.672c-.342.5.184.293.327.4a70.745,70.745,0,0,0,6.911,1.857c1.259.267,1.367.191,1.883-1.027a1.081,1.081,0,0,1,.149-.3,1.357,1.357,0,0,0,.753-.99,3.762,3.762,0,0,1,.728-1.291,1.051,1.051,0,0,1,1.214-.267c.388.1.457.456.474.79.045.9-.229,1.766-.239,2.659-.044.171-.1.338-.151.508-.132.443.037.689.493.725a24.223,24.223,0,0,0,9.589-.665,7.615,7.615,0,0,0,4.127-2.733,6.877,6.877,0,0,0,1.1-2.534,5.307,5.307,0,0,0,.47-2.41c.042-.472.226-.808.725-.877a1.039,1.039,0,0,1,1.144.6c.254.479.17,1.062.479,1.523a7.966,7.966,0,0,1-3.837,7.229,16.634,16.634,0,0,1-8.617,2.451,32.842,32.842,0,0,1-6.612-.258c-.543-.08-.932-.029-1.128.576a3.321,3.321,0,0,1-.513.764c-.566-.019-.442-.484-.507-.811-.03-.153.141-.371-.116-.441-.2-.053-.335.105-.42.258-.339.614-1,.911-1.405,1.468a.377.377,0,0,1-.583.054c-.261-.543.156-.918.358-1.331.329-.674.281-.819-.454-.983a66.8,66.8,0,0,1-9.4-2.768,1.793,1.793,0,0,0-1.294.038,75.112,75.112,0,0,1-9.47,2.757c-.615.134-.654.308-.385.881.2.437.649.819.41,1.392a.39.39,0,0,1-.628-.079c-.393-.539-1.042-.829-1.372-1.429-.085-.154-.226-.31-.423-.259-.26.067-.1.29-.123.447C-1022.307-160.422-1022.314-159.995-1022.875-160.228Z" transform="translate(1043.497 215.583)"/><path class="b" d="M-917.235-186.192a1.285,1.285,0,0,1-.577-.843c-.129-.5-.3-1.069-.958-.952-.629.111-.569.714-.647,1.214-.1.638.1,1.331-.329,1.911-.375-.118-.33-.449-.319-.716.108-2.519-.945-4.647-2.151-6.757a37.682,37.682,0,0,0-2.191-3.22c-.52-.726-.664-.683-1.319-.123-1.271,1.087-2.414,2.315-3.787,3.294-.983.7-1.9,1.5-2.868,2.229a1.1,1.1,0,0,0-.347.552.954.954,0,0,1-.371.6c-.451.1-.6-.162-.619-.545a1.681,1.681,0,0,1,.558-1.288c.237-.243.652-.576.525-.844-.167-.354-.674-.128-1.033-.151a.81.81,0,0,0-.835.526,1.115,1.115,0,0,1-.412.5c-.994.645-2.01,1.256-3.037,1.847-.314.181-.624.281-.783-.2.094-.505.56-.648.9-.89.484-.34,1.012-.618,1.5-.959a1.748,1.748,0,0,0,.734-1.328,20.333,20.333,0,0,1,.374-3.463,1.019,1.019,0,0,0,.4-.921,16.642,16.642,0,0,1,.068-2.3c.1-1,.618-1.432,1.5-1.267.239.045.469.147.49.375.076.815.545,1.529.578,2.349.019.945.034,1.893,0,2.84-.007.168-.121.378.069.487s.327-.076.457-.18q1.522-1.218,2.958-2.536a4.965,4.965,0,0,0,1.813-1.494c.193-.247.26-.423,0-.673a.717.717,0,0,1-.214-.84c.154-.348.482-.342.793-.358a.405.405,0,0,1,.132,0,3.949,3.949,0,0,0,2.251.016.721.721,0,0,1,.881.293.756.756,0,0,1-.2.881c-.319.385-.326.681.094.967a14.359,14.359,0,0,1,2.322,2.85,18.93,18.93,0,0,1,2.965,5.7A8.711,8.711,0,0,1-917.235-186.192Z" transform="translate(984.999 231.053)"/><path class="b" d="M-973.935-145.063a12.1,12.1,0,0,0,1.686-1.8.924.924,0,0,1,1.083-.4c.259.042.433.2.244.457a1.174,1.174,0,0,0-.049,1.239l-.3.66c-.533.388-.7,1.057-1.148,1.507a9.551,9.551,0,0,1-2.277,2.89,14.7,14.7,0,0,1-4.918,3.4,11.465,11.465,0,0,1-10.617-.809,17.092,17.092,0,0,1-5.476-5.179,11,11,0,0,1-1.7-2.735c.363-.185.345-.454.194-.777-.249-.531-.136-.692.44-.678a.828.828,0,0,1,.77.421,12.067,12.067,0,0,0,1.694,1.817c.427-.218.588.1.78.378a17.619,17.619,0,0,0,3.333,3.663,9.684,9.684,0,0,0,5.925,2.374,9.1,9.1,0,0,0,5.175-1.625,16.354,16.354,0,0,0,4.394-4.447C-974.506-144.982-974.369-145.339-973.935-145.063Z" transform="translate(1018.025 201.196)"/><path class="b" d="M-970.716-261.88a2.131,2.131,0,0,1-1.106-.553,1.674,1.674,0,0,0-.633-.342c-.561-.117-.807.094-.727.665a2.411,2.411,0,0,0,.449,1.227c.109.135.251.259.177.465-.455.273-.577-.118-.741-.385a19.267,19.267,0,0,0-4.309-5.064,9.557,9.557,0,0,0-5.815-2.293,9.01,9.01,0,0,0-5.169,1.619,16.315,16.315,0,0,0-4.453,4.559c-.213.31-.484.573-.685.892a.324.324,0,0,1-.455.14c-.067-.425.262-.732.335-1.119.127-.672-.046-.858-.71-.738a2.442,2.442,0,0,0-1.039.552,1.491,1.491,0,0,1-.827.375,19.4,19.4,0,0,1,7.534-7.414,11.324,11.324,0,0,1,10.64,0,17.411,17.411,0,0,1,6.226,5.516C-971.57-263.157-971.156-262.51-970.716-261.88Z" transform="translate(1017.474 270.622)"/><path class="b" d="M-928.622-206.354a15,15,0,0,1-.37-2.058c-.14-.534-.463-.648-.939-.575-.318.049-.413.3-.507.553a7.559,7.559,0,0,0-.305,2.813c0,.385-.009.76-.388.993-.361-.164-.314-.5-.325-.8-.033-.9-.04-1.809-.009-2.712.054-1.568-.119-3.127-.125-4.69a8.19,8.19,0,0,0,.183-1.944.511.511,0,0,0-.208-.5.5.5,0,0,1-.195-.584.56.56,0,0,1,.579-.358c.74-.027,1.458-.137,2.059.566a2.325,2.325,0,0,0,1.359.742,1.406,1.406,0,0,1,.875.555.775.775,0,0,0,.686.315,10.976,10.976,0,0,1,2.878,2.26c.583.6,1.281,1.063,1.853,1.676.3.319.622.075.828-.21.321-.445.664-.871,1-1.3a1.763,1.763,0,0,0,.86-1.159,2.628,2.628,0,0,1,.28-.39c.641-.254.732-.845.861-1.414a.454.454,0,0,1,.117-.166,1.66,1.66,0,0,0,1.071-1.044,1.123,1.123,0,0,1,1.426-.457.6.6,0,0,1,.382.7,5.642,5.642,0,0,1-.659,2c-.392.562-.6,1.227-1.04,1.75a20.119,20.119,0,0,1-2.7,3.7c-.26.277-.426.563-.188.936-.772-.288-.768-.288-.365-.987.129-.224.33-.479.162-.729-.151-.226-.459-.167-.677-.1a3.525,3.525,0,0,1-2.074,0c-.221-.063-.522-.112-.674.119a.572.572,0,0,0,.171.716c.434.434.283.691-.133,1.057a10.375,10.375,0,0,1-1.8,1.517c-.274-.316-.052-.552.166-.728,1.291-1.042,1.342-1.335-.062-2.571-.958-.844-1.91-1.7-2.868-2.544a1.967,1.967,0,0,0-.312-.244c-.163-.094-.309-.333-.516-.2s-.068.362-.059.554c.064,1.455.033,2.912.017,4.367C-928.312-206.7-928.307-206.436-928.622-206.354Z" transform="translate(981.116 240.062)"/><path class="b" d="M-1037.309-217.5c-.821-.5-1.23-1.413-1.975-2a1.744,1.744,0,0,0-1.181-.485c-.525.023-.68.271-.479.766a.643.643,0,0,1,0,.682,20.457,20.457,0,0,1-3.427-7.272,8.52,8.52,0,0,1-.144-2.43,1.681,1.681,0,0,0,.621-1.058.887.887,0,0,1,1.052-.666c.615.045.506.531.544.885.054.5.029,1.01.035,1.517a.91.91,0,0,0,.254.784c.307.032.372.275.434.51a14.983,14.983,0,0,0,1.589,4.1,40.21,40.21,0,0,0,2.234,3.414C-1037.485-218.407-1036.985-218.081-1037.309-217.5Z" transform="translate(1044.558 247.737)"/><path class="b" d="M-1043.591-180.887a.6.6,0,0,0,.544-.5c.142-.6.652-.912.984-1.361a.969.969,0,0,1,.808-.378c.449,0,.661.148.6.682-.052.495-.472.9-.307,1.427a.415.415,0,0,1,.106.152c.038.557-.418,1.009-.338,1.577a9.384,9.384,0,0,0-.524,2.983,5.849,5.849,0,0,0,1.323,3.863c.167.213.353.42.112.7-.781-.3-1.194-1.017-1.732-1.58a.99.99,0,0,0-1.179-.313c-.463.2-.241.63-.2.99.1.835.9,1.214,1.227,1.905.081.174.235.316.253.524a8.06,8.06,0,0,1-2.264-8.7C-1043.984-179.576-1043.784-180.231-1043.591-180.887Z" transform="translate(1044.587 221.368)"/><path class="b" d="M-898.065-220.825c.049-.528.444-.888.67-1.326a5.614,5.614,0,0,0,.708-2.442c.007-.249-.094-.394-.312-.429a.8.8,0,0,0-.954.419,1.589,1.589,0,0,1-1.159.982c-.353-.34-.087-.667.063-.953a15.459,15.459,0,0,0,1.065-2.965c.081-.284.074-.631.457-.729a2.169,2.169,0,0,0,.2-1.779,12.226,12.226,0,0,0-.024-1.972c-.056-.2.113-.325.313-.346.314-.033.663-.052.812.287a5.986,5.986,0,0,1,.814,1.866.5.5,0,0,0,.383.482,12.606,12.606,0,0,1-1.3,5.923c-.359.834-.868,1.576-1.252,2.389C-897.689-221.185-897.776-220.917-898.065-220.825Z" transform="translate(962.79 249.095)"/><path class="b" d="M-940.241-140.333c.338-.537.476-1.225,1.148-1.507C-939.493-141.351-939.674-140.694-940.241-140.333Z" transform="translate(985.845 198.124)"/><path class="b" d="M-1020.879-220.765a10.569,10.569,0,0,1,2.059-1.835c1.022-.8,2.088-1.54,3.1-2.355.493-.4.436-1.077.582-1.636.2-.745.291-1.516.43-2.276a1.655,1.655,0,0,0,.565-1.094,7.45,7.45,0,0,1,1.01-2.347.735.735,0,0,1,1.016-.34c.405.135.122.468.152.721.1.814-.292,1.6-.115,2.405.345.121.277.4.248.659a2.1,2.1,0,0,0-.054.921c.952-.577,1.892-1.079,2.8-1.632.713-.434,1.469-.788,2.191-1.2.236-.136.529-.271.764.047a5.238,5.238,0,0,0,1.358-.5c1.082-.369,2.179-.7,3.235-1.135a5.035,5.035,0,0,1,2.2-.334c.188.009.454-.051.5.2s-.207.314-.383.389a5.877,5.877,0,0,0-2.117,1.194c-.09.094-.166.2-.248.305-1.917.951-3.839,1.895-5.7,2.953s-3.679,2.187-5.455,3.382a.965.965,0,0,0-.379.807c-.061.726-.115,1.454-.171,2.18-.264.369.034.845-.232,1.213l-.018-.013c-.113-.578-.269-1.151-.329-1.734-.091-.891-.238-.964-1.14-1.069-2.07-.241-3.695.73-5.309,1.785C-1020.5-220.994-1020.692-220.881-1020.879-220.765Z" transform="translate(1031.241 249.286)"/><path class="b" d="M-947.154-228.552c.159.842.378,1.678.464,2.527.115,1.13.99,1.574,1.746,2.142a8.2,8.2,0,0,1,1.417,1.166c-.226,0-.5-.006-.615-.19-.52-.837-1.5-.868-2.236-1.32a2.288,2.288,0,0,1-.535-.375,2.355,2.355,0,0,0-1.8-.329c-.16.071-.213.186-.111.307.684.812.278,1.712.221,2.583a.2.2,0,0,1-.016-.064c.2-1.817-1.156-2.458-2.388-3.237a96.079,96.079,0,0,0-9.282-5.1c-.188-.677-.811-.88-1.327-1.182a4.176,4.176,0,0,1-1.007-.671,3.353,3.353,0,0,1,2.129.131c1.542.656,3.192,1,4.75,1.609.333-.37.638-.111.938.052,1.524.832,3.055,1.654,4.522,2.586a.307.307,0,0,0,.322.057,2.086,2.086,0,0,0-.08-.825c-.026-.264-.1-.539.248-.66a15.6,15.6,0,0,0-.056-2.424c-.006-.216-.116-.466.164-.571a.609.609,0,0,1,.775.191,5.883,5.883,0,0,1,1.12,2.155A4.089,4.089,0,0,0-947.154-228.552Z" transform="translate(998.446 249.108)"/><path class="b" d="M-1008.293-169.867a.962.962,0,0,1-.33-.481c-.423-1.361-.925-2.7-1.329-4.067-.486-1.653-.708-3.35-1.117-5.012.446-.451.147-.923-.112-1.231a2.829,2.829,0,0,0-1.019-.892c-.607-.212-.8-.708-1.137-1.122-.252-.312-.089-.465.223-.454.966.036,1.93.039,2.9.011.537-.015.607.506.763.882.125.3.156.667.6.685a79.078,79.078,0,0,0,11.808,6.672c.2.091.383.217.573.327a31.659,31.659,0,0,0,3.011,1.323.651.651,0,0,0,.564.021c1.113-.474,2.251-.89,3.329-1.446.946-.528,1.975-.887,2.914-1.437a3.127,3.127,0,0,1,.795-.426c.488.037.834-.285,1.234-.479,1.069-.517,2.063-1.261,3.348-1.159.132.01.264.012.4.029a.57.57,0,0,1,.517.352.574.574,0,0,1-.189.656,3.022,3.022,0,0,1-.717.58,1.722,1.722,0,0,0-.665.7.777.777,0,0,1-.267.169,3.741,3.741,0,0,0-1.207.656c-1.824.917-3.656,1.819-5.5,2.691a.7.7,0,0,1-.633.055.467.467,0,0,1-.159-.259,3.786,3.786,0,0,1,1.378-1.09,5.478,5.478,0,0,0-1.994-.042,2.931,2.931,0,0,0-.766.2,5.2,5.2,0,0,1-4.164-.007,5.415,5.415,0,0,0-2.836-.165c.708.323,1.039.849,1.6,1.075.2.081.458.154.429.431s-.313.274-.51.35a.628.628,0,0,1-.573.035c-.07-.428-.4-.618-.743-.768a79.992,79.992,0,0,1-9.421-4.971c-.111-.067-.233-.171-.364-.092s-.077.237-.056.363a28.532,28.532,0,0,0,1.333,4.634c.137.395.563.8.065,1.239a1.358,1.358,0,0,1-.691-.928,2.914,2.914,0,0,0-.705-1.178.82.82,0,0,0-.9-.249c-.384.089-.315.426-.33.7a4.793,4.793,0,0,0,.558,2.487C-1008.3-170.29-1008.182-170.1-1008.293-169.867Z" transform="translate(1027.064 221.366)"/><path class="b" d="M-944.442-170.5c.526-1.513,1.092-3.015,1.476-4.573.194-.787.318-1.591.5-2.544l-4.125,2.43a1.048,1.048,0,0,1,.686-.73c.352-.167.885-.419.777-.859s-.659-.239-1-.213a6.4,6.4,0,0,0-2.91,1.019c-.391.242-.778.538-1.282.283l5.176-2.924c.187.118.333.009.485-.085q1.459-.9,2.92-1.8a.707.707,0,0,0,.389-.43c.124-.657.577-.753,1.138-.728.485.021.972,0,1.457.009.2,0,.441-.022.523.2.095.253-.156.332-.321.425-.557.314-.767.934-1.2,1.368a.682.682,0,0,0,.041,1.057c-.085.409-.186.816-.251,1.228a39.3,39.3,0,0,1-2.125,7.536c-.125-.367.069-.687.149-1.024a3.046,3.046,0,0,0,.151-1.555c-.072-.261-.108-.53-.443-.577a.727.727,0,0,0-.765.278,3.922,3.922,0,0,0-.823,1.41A1.164,1.164,0,0,1-944.442-170.5Z" transform="translate(991.517 220.542)"/><path class="b" d="M-959.692-158.722c-.675.53.177.439.268.657a1.248,1.248,0,0,1-.382-.021c-.226-.087-.586-.064-.573-.418.011-.315.339-.278.554-.354Z" transform="translate(997.183 207.704)"/><path class="b" d="M-1032.939-155.546l1.46.8A1.678,1.678,0,0,1-1032.939-155.546Z" transform="translate(1038.03 205.84)"/><path class="b" d="M-1002.87-151.808c.283-.139.807-.071.563-.66.237.14.357.346.182.582C-1002.323-151.619-1002.6-151.651-1002.87-151.808Z" transform="translate(1021.103 204.107)"/><path class="b" d="M-1034.747-157.065c.274.213.618.341.8.665C-1034.419-156.376-1034.732-156.541-1034.747-157.065Z" transform="translate(1039.047 206.695)"/><path class="b" d="M-1024.853-197.729c-.061-2.135-.529-4.239-.436-6.39a21.4,21.4,0,0,0-.059-3.636,7.22,7.22,0,0,1-.253-1.874c-.031-.992-.355-1.308-1.34-1.33-.485-.011-.97.011-1.454-.008a2.8,2.8,0,0,0-1.57.4,26.038,26.038,0,0,1-3.044,1.6c-.558.62-1.31,1.029-1.841,1.666-.371.445-.687.484-1.076.074a2.762,2.762,0,0,1-1.012-.789,11.929,11.929,0,0,0-1.331-1.342,1.367,1.367,0,0,0-1.32-.189.6.6,0,0,0-.379.972,1.235,1.235,0,0,1,.279.73c.767.974,1.531,1.95,2.3,2.919a.558.558,0,0,1-.035.823,29.09,29.09,0,0,0-1.9,2.364,25.361,25.361,0,0,0-2.991,5.178c.383.333.6.067.772-.238a5.007,5.007,0,0,1,.7-1.034c.25-.26.471-.72.887-.462.365.226.109.641,0,.959-.127.36-.135.646.3.782.349,0,.517-.265.638-.509.306-.616.714-1.166,1.048-1.764a26.367,26.367,0,0,1,2.088-2.973c.331-.436.611-.429.974-.009.279.322.636.547.933.843a48.366,48.366,0,0,0,5.191,4.287c.465.35,1.013.65,1.091,1.342a.456.456,0,0,0,.411.381.446.446,0,0,0,.486-.5,1.56,1.56,0,0,0-.59-1.341c-.461-.3-.767-.795-1.3-1.01a.422.422,0,0,1-.288-.476c.091-.294.366-.177.569-.146a3.241,3.241,0,0,0,.922.029c1.06-.143,1.138-.1,1.589.919.244.549.584.6,1.04.146A1.076,1.076,0,0,0-1024.853-197.729Zm-3.125-3.746c0,.485.062.97.1,1.505-.029.131.117.386-.126.479-.208.08-.365-.113-.518-.235a60.2,60.2,0,0,1-5.036-4.473c-.2-.2-.275-.385-.043-.617a60.533,60.533,0,0,1,5.187-4.6c.12-.1.267-.23.414-.148.243.135.141.4.123.6C-1028.1-206.473-1027.992-203.973-1027.978-201.475Z" transform="translate(1043.304 237.041)"/><path class="b" d="M-901-210.572a14.753,14.753,0,0,1,.894-1.462A1.682,1.682,0,0,1-901-210.572Z" transform="translate(963.752 237.64)"/><path class="b" d="M-903.419-206.6a5.155,5.155,0,0,1,.881-1.2C-902.551-207.189-902.985-206.892-903.419-206.6Z" transform="translate(965.116 235.253)"/><path class="b" d="M-1037.069-177.994l-.511,1.458C-1037.767-177.147-1037.388-177.56-1037.069-177.994Z" transform="translate(1040.67 218.477)"/><path class="b" d="M-967.694-163.733c-.242.365-.666.416-1.021.578-2.578,1.177-2.58,1.175-5.177-.018-.255-.117-.561-.167-.706-.458.838.341,1.691.65,2.509,1.036a1.819,1.819,0,0,0,1.639-.009A20.465,20.465,0,0,1-967.694-163.733Z" transform="translate(1005.187 210.449)"/><path class="b" d="M-1004.085-205.367c.026-.414-.182-.874.233-1.213C-1003.881-206.166-1003.678-205.708-1004.085-205.367Z" transform="translate(1021.803 234.57)"/><path class="b" d="M-943.925-166.735a3.013,3.013,0,0,1-1.2.639A1.488,1.488,0,0,1-943.925-166.735Z" transform="translate(988.594 212.141)"/><path class="b" d="M-969.731-206.663c.005-3.228.032-6.456,0-9.685a2.427,2.427,0,0,0-1.127-2.065,7.931,7.931,0,0,0-2.607-1.106,23.817,23.817,0,0,0-7.9-.532,14.68,14.68,0,0,0-5.068,1.2,2.7,2.7,0,0,0-1.857,2.366c-.037,3.183,0,6.367,0,9.552-.006,1.123-.024,2.246-.013,3.368a2.562,2.562,0,0,0,.123,1.3,2.619,2.619,0,0,0,.66.97,7.562,7.562,0,0,0,2.115,1.179,23.18,23.18,0,0,0,11.26.421,6.369,6.369,0,0,0,4.039-2.169h0l.14-.263a1.138,1.138,0,0,0,.251-.793Q-969.724-204.792-969.731-206.663Zm-13.254-10.664a19.962,19.962,0,0,1,5.84-.3,19.614,19.614,0,0,1,3.054.516c.432.118.844.27.919.721a1.945,1.945,0,0,0-.685.119,20.7,20.7,0,0,1-8.413.43c-.922-.124-1.784-.48-2.7-.629A2.8,2.8,0,0,1-982.985-217.327Zm10.258,14.3a1.376,1.376,0,0,1-.656.536c-.187.089-.371.176-.408.4-.3-.238-.642-.082-.957-.027a27.27,27.27,0,0,1-4.208.448,24.03,24.03,0,0,1-4.145-.415c-.261-.041-.527-.109-.725.087-.072-.251-.3-.327-.508-.414a3.717,3.717,0,0,1-.549-.228,1.12,1.12,0,0,1-.527-1.306c.232-.553.672-.218,1.033-.207a.872.872,0,0,1,.193.045,21.111,21.111,0,0,0,4.915.553,24.323,24.323,0,0,0,5.771-.607c.286-.064.636-.243.835.121A1.024,1.024,0,0,1-972.726-203.026Zm-.887-3.733a18.926,18.926,0,0,1-5.406.774,17.825,17.825,0,0,1-5.876-.948,1.839,1.839,0,0,1-.846-2.3c.146-.285.367-.169.573-.11a23.394,23.394,0,0,0,9.654.575,15.915,15.915,0,0,0,2.652-.578c.431-.135.641-.037.623.433,0,.044,0,.088,0,.133C-972.2-207.277-972.193-207.268-973.614-206.759Zm-.083-4.6a17.659,17.659,0,0,1-5.289.721,18.039,18.039,0,0,1-5.691-.828,1.731,1.731,0,0,1-1.082-2.359c.122-.317.339-.21.545-.149a22.313,22.313,0,0,0,6.818.812,20.257,20.257,0,0,0,5.492-.794c.523-.159.662-.017.672.5C-972.2-211.875-972.183-211.843-973.7-211.355Z" transform="translate(1012.914 242.218)"/></g></g></svg>