<svg xmlns="http://www.w3.org/2000/svg" xmlns:xlink="http://www.w3.org/1999/xlink" width="1920" height="252" viewBox="0 0 1920 252"><defs><style>.a{fill:none;}.b{opacity:0.094;clip-path:url(#a);}.c{fill:#7d5cc0;}</style><clipPath id="a"><rect class="a" width="1920" height="252"/></clipPath></defs><g class="b"><g transform="translate(4575 6700)"><circle class="c" cx="8" cy="8" r="8" transform="translate(-4575 -6700)"/></g><g transform="translate(4611 6700)"><circle class="c" cx="8" cy="8" r="8" transform="translate(-4575 -6700)"/></g><g transform="translate(4647 6700)"><circle class="c" cx="8" cy="8" r="8" transform="translate(-4575 -6700)"/></g><g transform="translate(4683 6700)"><circle class="c" cx="8" cy="8" r="8" transform="translate(-4575 -6700)"/></g><g transform="translate(4719 6700)"><circle class="c" cx="8" cy="8" r="8" transform="translate(-4575 -6700)"/></g><g transform="translate(4755 6700)"><circle class="c" cx="8" cy="8" r="8" transform="translate(-4575 -6700)"/></g><g transform="translate(4791 6700)"><circle class="c" cx="8" cy="8" r="8" transform="translate(-4575 -6700)"/></g><g transform="translate(4827 6700)"><circle class="c" cx="8" cy="8" r="8" transform="translate(-4575 -6700)"/></g><g transform="translate(4863 6700)"><circle class="c" cx="8" cy="8" r="8" transform="translate(-4575 -6700)"/></g><g transform="translate(4899 6700)"><circle class="c" cx="8" cy="8" r="8" transform="translate(-4575 -6700)"/></g><g transform="translate(4935 6700)"><circle class="c" cx="8" cy="8" r="8" transform="translate(-4575 -6700)"/></g><g transform="translate(4971 6700)"><circle class="c" cx="8" cy="8" r="8" transform="translate(-4575 -6700)"/></g><g transform="translate(5007 6700)"><circle class="c" cx="8" cy="8" r="8" transform="translate(-4575 -6700)"/></g><g transform="translate(5043 6700)"><circle class="c" cx="8" cy="8" r="8" transform="translate(-4575 -6700)"/></g><g transform="translate(5079 6700)"><circle class="c" cx="8" cy="8" r="8" transform="translate(-4575 -6700)"/></g><g transform="translate(5115 6700)"><circle class="c" cx="8" cy="8" r="8" transform="translate(-4575 -6700)"/></g><g transform="translate(5151 6700)"><circle class="c" cx="8" cy="8" r="8" transform="translate(-4575 -6700)"/></g><g transform="translate(5187 6700)"><circle class="c" cx="8" cy="8" r="8" transform="translate(-4575 -6700)"/></g><g transform="translate(5223 6700)"><circle class="c" cx="8" cy="8" r="8" transform="translate(-4575 -6700)"/></g><g transform="translate(5259 6700)"><circle class="c" cx="8" cy="8" r="8" transform="translate(-4575 -6700)"/></g><g transform="translate(5295 6700)"><circle class="c" cx="8" cy="8" r="8" transform="translate(-4575 -6700)"/></g><g transform="translate(5331 6700)"><circle class="c" cx="8" cy="8" r="8" transform="translate(-4575 -6700)"/></g><g transform="translate(5367 6700)"><circle class="c" cx="8" cy="8" r="8" transform="translate(-4575 -6700)"/></g><g transform="translate(5403 6700)"><circle class="c" cx="8" cy="8" r="8" transform="translate(-4575 -6700)"/></g><g transform="translate(5439 6700)"><circle class="c" cx="8" cy="8" r="8" transform="translate(-4575 -6700)"/></g><g transform="translate(5475 6700)"><circle class="c" cx="8" cy="8" r="8" transform="translate(-4575 -6700)"/></g><g transform="translate(5511 6700)"><circle class="c" cx="8" cy="8" r="8" transform="translate(-4575 -6700)"/></g><g transform="translate(5547 6700)"><circle class="c" cx="8" cy="8" r="8" transform="translate(-4575 -6700)"/></g><g transform="translate(5583 6700)"><circle class="c" cx="8" cy="8" r="8" transform="translate(-4575 -6700)"/></g><g transform="translate(5619 6700)"><circle class="c" cx="8" cy="8" r="8" transform="translate(-4575 -6700)"/></g><g transform="translate(5655 6700)"><circle class="c" cx="8" cy="8" r="8" transform="translate(-4575 -6700)"/></g><g transform="translate(5691 6700)"><circle class="c" cx="8" cy="8" r="8" transform="translate(-4575 -6700)"/></g><g transform="translate(5727 6700)"><circle class="c" cx="8" cy="8" r="8" transform="translate(-4575 -6700)"/></g><g transform="translate(5763 6700)"><circle class="c" cx="8" cy="8" r="8" transform="translate(-4575 -6700)"/></g><g transform="translate(5799 6700)"><circle class="c" cx="8" cy="8" r="8" transform="translate(-4575 -6700)"/></g><g transform="translate(5835 6700)"><circle class="c" cx="8" cy="8" r="8" transform="translate(-4575 -6700)"/></g><g transform="translate(5871 6700)"><circle class="c" cx="8" cy="8" r="8" transform="translate(-4575 -6700)"/></g><g transform="translate(5907 6700)"><circle class="c" cx="8" cy="8" r="8" transform="translate(-4575 -6700)"/></g><g transform="translate(5943 6700)"><circle class="c" cx="8" cy="8" r="8" transform="translate(-4575 -6700)"/></g><g transform="translate(5979 6700)"><circle class="c" cx="8" cy="8" r="8" transform="translate(-4575 -6700)"/></g><g transform="translate(6015 6700)"><circle class="c" cx="8" cy="8" r="8" transform="translate(-4575 -6700)"/></g><g transform="translate(6051 6700)"><circle class="c" cx="8" cy="8" r="8" transform="translate(-4575 -6700)"/></g><g transform="translate(6087 6700)"><circle class="c" cx="8" cy="8" r="8" transform="translate(-4575 -6700)"/></g><g transform="translate(6123 6700)"><circle class="c" cx="8" cy="8" r="8" transform="translate(-4575 -6700)"/></g><g transform="translate(6159 6700)"><circle class="c" cx="8" cy="8" r="8" transform="translate(-4575 -6700)"/></g><g transform="translate(6195 6700)"><circle class="c" cx="8" cy="8" r="8" transform="translate(-4575 -6700)"/></g><g transform="translate(6231 6700)"><circle class="c" cx="8" cy="8" r="8" transform="translate(-4575 -6700)"/></g><g transform="translate(6267 6700)"><circle class="c" cx="8" cy="8" r="8" transform="translate(-4575 -6700)"/></g><g transform="translate(6303 6700)"><circle class="c" cx="8" cy="8" r="8" transform="translate(-4575 -6700)"/></g><g transform="translate(6339 6700)"><circle class="c" cx="8" cy="8" r="8" transform="translate(-4575 -6700)"/></g><g transform="translate(6375 6700)"><circle class="c" cx="8" cy="8" r="8" transform="translate(-4575 -6700)"/></g><g transform="translate(6411 6700)"><circle class="c" cx="8" cy="8" r="8" transform="translate(-4575 -6700)"/></g><g transform="translate(6447 6700)"><circle class="c" cx="8" cy="8" r="8" transform="translate(-4575 -6700)"/></g><g transform="translate(6483 6700)"><circle class="c" cx="8" cy="8" r="8" transform="translate(-4575 -6700)"/></g><g transform="translate(4575 6736)"><circle class="c" cx="8" cy="8" r="8" transform="translate(-4575 -6700)"/></g><g transform="translate(4611 6736)"><circle class="c" cx="8" cy="8" r="8" transform="translate(-4575 -6700)"/></g><g transform="translate(4647 6736)"><circle class="c" cx="8" cy="8" r="8" transform="translate(-4575 -6700)"/></g><g transform="translate(4683 6736)"><circle class="c" cx="8" cy="8" r="8" transform="translate(-4575 -6700)"/></g><g transform="translate(4719 6736)"><circle class="c" cx="8" cy="8" r="8" transform="translate(-4575 -6700)"/></g><g transform="translate(4755 6736)"><circle class="c" cx="8" cy="8" r="8" transform="translate(-4575 -6700)"/></g><g transform="translate(4791 6736)"><circle class="c" cx="8" cy="8" r="8" transform="translate(-4575 -6700)"/></g><g transform="translate(4827 6736)"><circle class="c" cx="8" cy="8" r="8" transform="translate(-4575 -6700)"/></g><g transform="translate(4863 6736)"><circle class="c" cx="8" cy="8" r="8" transform="translate(-4575 -6700)"/></g><g transform="translate(4899 6736)"><circle class="c" cx="8" cy="8" r="8" transform="translate(-4575 -6700)"/></g><g transform="translate(4935 6736)"><circle class="c" cx="8" cy="8" r="8" transform="translate(-4575 -6700)"/></g><g transform="translate(4971 6736)"><circle class="c" cx="8" cy="8" r="8" transform="translate(-4575 -6700)"/></g><g transform="translate(5007 6736)"><circle class="c" cx="8" cy="8" r="8" transform="translate(-4575 -6700)"/></g><g transform="translate(5043 6736)"><circle class="c" cx="8" cy="8" r="8" transform="translate(-4575 -6700)"/></g><g transform="translate(5079 6736)"><circle class="c" cx="8" cy="8" r="8" transform="translate(-4575 -6700)"/></g><g transform="translate(5115 6736)"><circle class="c" cx="8" cy="8" r="8" transform="translate(-4575 -6700)"/></g><g transform="translate(5151 6736)"><circle class="c" cx="8" cy="8" r="8" transform="translate(-4575 -6700)"/></g><g transform="translate(5187 6736)"><circle class="c" cx="8" cy="8" r="8" transform="translate(-4575 -6700)"/></g><g transform="translate(5223 6736)"><circle class="c" cx="8" cy="8" r="8" transform="translate(-4575 -6700)"/></g><g transform="translate(5259 6736)"><circle class="c" cx="8" cy="8" r="8" transform="translate(-4575 -6700)"/></g><g transform="translate(5295 6736)"><circle class="c" cx="8" cy="8" r="8" transform="translate(-4575 -6700)"/></g><g transform="translate(5331 6736)"><circle class="c" cx="8" cy="8" r="8" transform="translate(-4575 -6700)"/></g><g transform="translate(5367 6736)"><circle class="c" cx="8" cy="8" r="8" transform="translate(-4575 -6700)"/></g><g transform="translate(5403 6736)"><circle class="c" cx="8" cy="8" r="8" transform="translate(-4575 -6700)"/></g><g transform="translate(5439 6736)"><circle class="c" cx="8" cy="8" r="8" transform="translate(-4575 -6700)"/></g><g transform="translate(5475 6736)"><circle class="c" cx="8" cy="8" r="8" transform="translate(-4575 -6700)"/></g><g transform="translate(5511 6736)"><circle class="c" cx="8" cy="8" r="8" transform="translate(-4575 -6700)"/></g><g transform="translate(5547 6736)"><circle class="c" cx="8" cy="8" r="8" transform="translate(-4575 -6700)"/></g><g transform="translate(5583 6736)"><circle class="c" cx="8" cy="8" r="8" transform="translate(-4575 -6700)"/></g><g transform="translate(5619 6736)"><circle class="c" cx="8" cy="8" r="8" transform="translate(-4575 -6700)"/></g><g transform="translate(5655 6736)"><circle class="c" cx="8" cy="8" r="8" transform="translate(-4575 -6700)"/></g><g transform="translate(5691 6736)"><circle class="c" cx="8" cy="8" r="8" transform="translate(-4575 -6700)"/></g><g transform="translate(5727 6736)"><circle class="c" cx="8" cy="8" r="8" transform="translate(-4575 -6700)"/></g><g transform="translate(5763 6736)"><circle class="c" cx="8" cy="8" r="8" transform="translate(-4575 -6700)"/></g><g transform="translate(5799 6736)"><circle class="c" cx="8" cy="8" r="8" transform="translate(-4575 -6700)"/></g><g transform="translate(5835 6736)"><circle class="c" cx="8" cy="8" r="8" transform="translate(-4575 -6700)"/></g><g transform="translate(5871 6736)"><circle class="c" cx="8" cy="8" r="8" transform="translate(-4575 -6700)"/></g><g transform="translate(5907 6736)"><circle class="c" cx="8" cy="8" r="8" transform="translate(-4575 -6700)"/></g><g transform="translate(5943 6736)"><circle class="c" cx="8" cy="8" r="8" transform="translate(-4575 -6700)"/></g><g transform="translate(5979 6736)"><circle class="c" cx="8" cy="8" r="8" transform="translate(-4575 -6700)"/></g><g transform="translate(6015 6736)"><circle class="c" cx="8" cy="8" r="8" transform="translate(-4575 -6700)"/></g><g transform="translate(6051 6736)"><circle class="c" cx="8" cy="8" r="8" transform="translate(-4575 -6700)"/></g><g transform="translate(6087 6736)"><circle class="c" cx="8" cy="8" r="8" transform="translate(-4575 -6700)"/></g><g transform="translate(6123 6736)"><circle class="c" cx="8" cy="8" r="8" transform="translate(-4575 -6700)"/></g><g transform="translate(6159 6736)"><circle class="c" cx="8" cy="8" r="8" transform="translate(-4575 -6700)"/></g><g transform="translate(6195 6736)"><circle class="c" cx="8" cy="8" r="8" transform="translate(-4575 -6700)"/></g><g transform="translate(6231 6736)"><circle class="c" cx="8" cy="8" r="8" transform="translate(-4575 -6700)"/></g><g transform="translate(6267 6736)"><circle class="c" cx="8" cy="8" r="8" transform="translate(-4575 -6700)"/></g><g transform="translate(6303 6736)"><circle class="c" cx="8" cy="8" r="8" transform="translate(-4575 -6700)"/></g><g transform="translate(6339 6736)"><circle class="c" cx="8" cy="8" r="8" transform="translate(-4575 -6700)"/></g><g transform="translate(6375 6736)"><circle class="c" cx="8" cy="8" r="8" transform="translate(-4575 -6700)"/></g><g transform="translate(6411 6736)"><circle class="c" cx="8" cy="8" r="8" transform="translate(-4575 -6700)"/></g><g transform="translate(6447 6736)"><circle class="c" cx="8" cy="8" r="8" transform="translate(-4575 -6700)"/></g><g transform="translate(6483 6736)"><circle class="c" cx="8" cy="8" r="8" transform="translate(-4575 -6700)"/></g><g transform="translate(4575 6772)"><circle class="c" cx="8" cy="8" r="8" transform="translate(-4575 -6700)"/></g><g transform="translate(4611 6772)"><circle class="c" cx="8" cy="8" r="8" transform="translate(-4575 -6700)"/></g><g transform="translate(4647 6772)"><circle class="c" cx="8" cy="8" r="8" transform="translate(-4575 -6700)"/></g><g transform="translate(4683 6772)"><circle class="c" cx="8" cy="8" r="8" transform="translate(-4575 -6700)"/></g><g transform="translate(4719 6772)"><circle class="c" cx="8" cy="8" r="8" transform="translate(-4575 -6700)"/></g><g transform="translate(4755 6772)"><circle class="c" cx="8" cy="8" r="8" transform="translate(-4575 -6700)"/></g><g transform="translate(4791 6772)"><circle class="c" cx="8" cy="8" r="8" transform="translate(-4575 -6700)"/></g><g transform="translate(4827 6772)"><circle class="c" cx="8" cy="8" r="8" transform="translate(-4575 -6700)"/></g><g transform="translate(4863 6772)"><circle class="c" cx="8" cy="8" r="8" transform="translate(-4575 -6700)"/></g><g transform="translate(4899 6772)"><circle class="c" cx="8" cy="8" r="8" transform="translate(-4575 -6700)"/></g><g transform="translate(4935 6772)"><circle class="c" cx="8" cy="8" r="8" transform="translate(-4575 -6700)"/></g><g transform="translate(4971 6772)"><circle class="c" cx="8" cy="8" r="8" transform="translate(-4575 -6700)"/></g><g transform="translate(5007 6772)"><circle class="c" cx="8" cy="8" r="8" transform="translate(-4575 -6700)"/></g><g transform="translate(5043 6772)"><circle class="c" cx="8" cy="8" r="8" transform="translate(-4575 -6700)"/></g><g transform="translate(5079 6772)"><circle class="c" cx="8" cy="8" r="8" transform="translate(-4575 -6700)"/></g><g transform="translate(5115 6772)"><circle class="c" cx="8" cy="8" r="8" transform="translate(-4575 -6700)"/></g><g transform="translate(5151 6772)"><circle class="c" cx="8" cy="8" r="8" transform="translate(-4575 -6700)"/></g><g transform="translate(5187 6772)"><circle class="c" cx="8" cy="8" r="8" transform="translate(-4575 -6700)"/></g><g transform="translate(5223 6772)"><circle class="c" cx="8" cy="8" r="8" transform="translate(-4575 -6700)"/></g><g transform="translate(5259 6772)"><circle class="c" cx="8" cy="8" r="8" transform="translate(-4575 -6700)"/></g><g transform="translate(5295 6772)"><circle class="c" cx="8" cy="8" r="8" transform="translate(-4575 -6700)"/></g><g transform="translate(5331 6772)"><circle class="c" cx="8" cy="8" r="8" transform="translate(-4575 -6700)"/></g><g transform="translate(5367 6772)"><circle class="c" cx="8" cy="8" r="8" transform="translate(-4575 -6700)"/></g><g transform="translate(5403 6772)"><circle class="c" cx="8" cy="8" r="8" transform="translate(-4575 -6700)"/></g><g transform="translate(5439 6772)"><circle class="c" cx="8" cy="8" r="8" transform="translate(-4575 -6700)"/></g><g transform="translate(5475 6772)"><circle class="c" cx="8" cy="8" r="8" transform="translate(-4575 -6700)"/></g><g transform="translate(5511 6772)"><circle class="c" cx="8" cy="8" r="8" transform="translate(-4575 -6700)"/></g><g transform="translate(5547 6772)"><circle class="c" cx="8" cy="8" r="8" transform="translate(-4575 -6700)"/></g><g transform="translate(5583 6772)"><circle class="c" cx="8" cy="8" r="8" transform="translate(-4575 -6700)"/></g><g transform="translate(5619 6772)"><circle class="c" cx="8" cy="8" r="8" transform="translate(-4575 -6700)"/></g><g transform="translate(5655 6772)"><circle class="c" cx="8" cy="8" r="8" transform="translate(-4575 -6700)"/></g><g transform="translate(5691 6772)"><circle class="c" cx="8" cy="8" r="8" transform="translate(-4575 -6700)"/></g><g transform="translate(5727 6772)"><circle class="c" cx="8" cy="8" r="8" transform="translate(-4575 -6700)"/></g><g transform="translate(5763 6772)"><circle class="c" cx="8" cy="8" r="8" transform="translate(-4575 -6700)"/></g><g transform="translate(5799 6772)"><circle class="c" cx="8" cy="8" r="8" transform="translate(-4575 -6700)"/></g><g transform="translate(5835 6772)"><circle class="c" cx="8" cy="8" r="8" transform="translate(-4575 -6700)"/></g><g transform="translate(5871 6772)"><circle class="c" cx="8" cy="8" r="8" transform="translate(-4575 -6700)"/></g><g transform="translate(5907 6772)"><circle class="c" cx="8" cy="8" r="8" transform="translate(-4575 -6700)"/></g><g transform="translate(5943 6772)"><circle class="c" cx="8" cy="8" r="8" transform="translate(-4575 -6700)"/></g><g transform="translate(5979 6772)"><circle class="c" cx="8" cy="8" r="8" transform="translate(-4575 -6700)"/></g><g transform="translate(6015 6772)"><circle class="c" cx="8" cy="8" r="8" transform="translate(-4575 -6700)"/></g><g transform="translate(6051 6772)"><circle class="c" cx="8" cy="8" r="8" transform="translate(-4575 -6700)"/></g><g transform="translate(6087 6772)"><circle class="c" cx="8" cy="8" r="8" transform="translate(-4575 -6700)"/></g><g transform="translate(6123 6772)"><circle class="c" cx="8" cy="8" r="8" transform="translate(-4575 -6700)"/></g><g transform="translate(6159 6772)"><circle class="c" cx="8" cy="8" r="8" transform="translate(-4575 -6700)"/></g><g transform="translate(6195 6772)"><circle class="c" cx="8" cy="8" r="8" transform="translate(-4575 -6700)"/></g><g transform="translate(6231 6772)"><circle class="c" cx="8" cy="8" r="8" transform="translate(-4575 -6700)"/></g><g transform="translate(6267 6772)"><circle class="c" cx="8" cy="8" r="8" transform="translate(-4575 -6700)"/></g><g transform="translate(6303 6772)"><circle class="c" cx="8" cy="8" r="8" transform="translate(-4575 -6700)"/></g><g transform="translate(6339 6772)"><circle class="c" cx="8" cy="8" r="8" transform="translate(-4575 -6700)"/></g><g transform="translate(6375 6772)"><circle class="c" cx="8" cy="8" r="8" transform="translate(-4575 -6700)"/></g><g transform="translate(6411 6772)"><circle class="c" cx="8" cy="8" r="8" transform="translate(-4575 -6700)"/></g><g transform="translate(6447 6772)"><circle class="c" cx="8" cy="8" r="8" transform="translate(-4575 -6700)"/></g><g transform="translate(6483 6772)"><circle class="c" cx="8" cy="8" r="8" transform="translate(-4575 -6700)"/></g><g transform="translate(4575 6808)"><circle class="c" cx="8" cy="8" r="8" transform="translate(-4575 -6700)"/></g><g transform="translate(4611 6808)"><circle class="c" cx="8" cy="8" r="8" transform="translate(-4575 -6700)"/></g><g transform="translate(4647 6808)"><circle class="c" cx="8" cy="8" r="8" transform="translate(-4575 -6700)"/></g><g transform="translate(4683 6808)"><circle class="c" cx="8" cy="8" r="8" transform="translate(-4575 -6700)"/></g><g transform="translate(4719 6808)"><circle class="c" cx="8" cy="8" r="8" transform="translate(-4575 -6700)"/></g><g transform="translate(4755 6808)"><circle class="c" cx="8" cy="8" r="8" transform="translate(-4575 -6700)"/></g><g transform="translate(4791 6808)"><circle class="c" cx="8" cy="8" r="8" transform="translate(-4575 -6700)"/></g><g transform="translate(4827 6808)"><circle class="c" cx="8" cy="8" r="8" transform="translate(-4575 -6700)"/></g><g transform="translate(4863 6808)"><circle class="c" cx="8" cy="8" r="8" transform="translate(-4575 -6700)"/></g><g transform="translate(4899 6808)"><circle class="c" cx="8" cy="8" r="8" transform="translate(-4575 -6700)"/></g><g transform="translate(4935 6808)"><circle class="c" cx="8" cy="8" r="8" transform="translate(-4575 -6700)"/></g><g transform="translate(4971 6808)"><circle class="c" cx="8" cy="8" r="8" transform="translate(-4575 -6700)"/></g><g transform="translate(5007 6808)"><circle class="c" cx="8" cy="8" r="8" transform="translate(-4575 -6700)"/></g><g transform="translate(5043 6808)"><circle class="c" cx="8" cy="8" r="8" transform="translate(-4575 -6700)"/></g><g transform="translate(5079 6808)"><circle class="c" cx="8" cy="8" r="8" transform="translate(-4575 -6700)"/></g><g transform="translate(5115 6808)"><circle class="c" cx="8" cy="8" r="8" transform="translate(-4575 -6700)"/></g><g transform="translate(5151 6808)"><circle class="c" cx="8" cy="8" r="8" transform="translate(-4575 -6700)"/></g><g transform="translate(5187 6808)"><circle class="c" cx="8" cy="8" r="8" transform="translate(-4575 -6700)"/></g><g transform="translate(5223 6808)"><circle class="c" cx="8" cy="8" r="8" transform="translate(-4575 -6700)"/></g><g transform="translate(5259 6808)"><circle class="c" cx="8" cy="8" r="8" transform="translate(-4575 -6700)"/></g><g transform="translate(5295 6808)"><circle class="c" cx="8" cy="8" r="8" transform="translate(-4575 -6700)"/></g><g transform="translate(5331 6808)"><circle class="c" cx="8" cy="8" r="8" transform="translate(-4575 -6700)"/></g><g transform="translate(5367 6808)"><circle class="c" cx="8" cy="8" r="8" transform="translate(-4575 -6700)"/></g><g transform="translate(5403 6808)"><circle class="c" cx="8" cy="8" r="8" transform="translate(-4575 -6700)"/></g><g transform="translate(5439 6808)"><circle class="c" cx="8" cy="8" r="8" transform="translate(-4575 -6700)"/></g><g transform="translate(5475 6808)"><circle class="c" cx="8" cy="8" r="8" transform="translate(-4575 -6700)"/></g><g transform="translate(5511 6808)"><circle class="c" cx="8" cy="8" r="8" transform="translate(-4575 -6700)"/></g><g transform="translate(5547 6808)"><circle class="c" cx="8" cy="8" r="8" transform="translate(-4575 -6700)"/></g><g transform="translate(5583 6808)"><circle class="c" cx="8" cy="8" r="8" transform="translate(-4575 -6700)"/></g><g transform="translate(5619 6808)"><circle class="c" cx="8" cy="8" r="8" transform="translate(-4575 -6700)"/></g><g transform="translate(5655 6808)"><circle class="c" cx="8" cy="8" r="8" transform="translate(-4575 -6700)"/></g><g transform="translate(5691 6808)"><circle class="c" cx="8" cy="8" r="8" transform="translate(-4575 -6700)"/></g><g transform="translate(5727 6808)"><circle class="c" cx="8" cy="8" r="8" transform="translate(-4575 -6700)"/></g><g transform="translate(5763 6808)"><circle class="c" cx="8" cy="8" r="8" transform="translate(-4575 -6700)"/></g><g transform="translate(5799 6808)"><circle class="c" cx="8" cy="8" r="8" transform="translate(-4575 -6700)"/></g><g transform="translate(5835 6808)"><circle class="c" cx="8" cy="8" r="8" transform="translate(-4575 -6700)"/></g><g transform="translate(5871 6808)"><circle class="c" cx="8" cy="8" r="8" transform="translate(-4575 -6700)"/></g><g transform="translate(5907 6808)"><circle class="c" cx="8" cy="8" r="8" transform="translate(-4575 -6700)"/></g><g transform="translate(5943 6808)"><circle class="c" cx="8" cy="8" r="8" transform="translate(-4575 -6700)"/></g><g transform="translate(5979 6808)"><circle class="c" cx="8" cy="8" r="8" transform="translate(-4575 -6700)"/></g><g transform="translate(6015 6808)"><circle class="c" cx="8" cy="8" r="8" transform="translate(-4575 -6700)"/></g><g transform="translate(6051 6808)"><circle class="c" cx="8" cy="8" r="8" transform="translate(-4575 -6700)"/></g><g transform="translate(6087 6808)"><circle class="c" cx="8" cy="8" r="8" transform="translate(-4575 -6700)"/></g><g transform="translate(6123 6808)"><circle class="c" cx="8" cy="8" r="8" transform="translate(-4575 -6700)"/></g><g transform="translate(6159 6808)"><circle class="c" cx="8" cy="8" r="8" transform="translate(-4575 -6700)"/></g><g transform="translate(6195 6808)"><circle class="c" cx="8" cy="8" r="8" transform="translate(-4575 -6700)"/></g><g transform="translate(6231 6808)"><circle class="c" cx="8" cy="8" r="8" transform="translate(-4575 -6700)"/></g><g transform="translate(6267 6808)"><circle class="c" cx="8" cy="8" r="8" transform="translate(-4575 -6700)"/></g><g transform="translate(6303 6808)"><circle class="c" cx="8" cy="8" r="8" transform="translate(-4575 -6700)"/></g><g transform="translate(6339 6808)"><circle class="c" cx="8" cy="8" r="8" transform="translate(-4575 -6700)"/></g><g transform="translate(6375 6808)"><circle class="c" cx="8" cy="8" r="8" transform="translate(-4575 -6700)"/></g><g transform="translate(6411 6808)"><circle class="c" cx="8" cy="8" r="8" transform="translate(-4575 -6700)"/></g><g transform="translate(6447 6808)"><circle class="c" cx="8" cy="8" r="8" transform="translate(-4575 -6700)"/></g><g transform="translate(6483 6808)"><circle class="c" cx="8" cy="8" r="8" transform="translate(-4575 -6700)"/></g><g transform="translate(4575 6844)"><circle class="c" cx="8" cy="8" r="8" transform="translate(-4575 -6700)"/></g><g transform="translate(4611 6844)"><circle class="c" cx="8" cy="8" r="8" transform="translate(-4575 -6700)"/></g><g transform="translate(4647 6844)"><circle class="c" cx="8" cy="8" r="8" transform="translate(-4575 -6700)"/></g><g transform="translate(4683 6844)"><circle class="c" cx="8" cy="8" r="8" transform="translate(-4575 -6700)"/></g><g transform="translate(4719 6844)"><circle class="c" cx="8" cy="8" r="8" transform="translate(-4575 -6700)"/></g><g transform="translate(4755 6844)"><circle class="c" cx="8" cy="8" r="8" transform="translate(-4575 -6700)"/></g><g transform="translate(4791 6844)"><circle class="c" cx="8" cy="8" r="8" transform="translate(-4575 -6700)"/></g><g transform="translate(4827 6844)"><circle class="c" cx="8" cy="8" r="8" transform="translate(-4575 -6700)"/></g><g transform="translate(4863 6844)"><circle class="c" cx="8" cy="8" r="8" transform="translate(-4575 -6700)"/></g><g transform="translate(4899 6844)"><circle class="c" cx="8" cy="8" r="8" transform="translate(-4575 -6700)"/></g><g transform="translate(4935 6844)"><circle class="c" cx="8" cy="8" r="8" transform="translate(-4575 -6700)"/></g><g transform="translate(4971 6844)"><circle class="c" cx="8" cy="8" r="8" transform="translate(-4575 -6700)"/></g><g transform="translate(5007 6844)"><circle class="c" cx="8" cy="8" r="8" transform="translate(-4575 -6700)"/></g><g transform="translate(5043 6844)"><circle class="c" cx="8" cy="8" r="8" transform="translate(-4575 -6700)"/></g><g transform="translate(5079 6844)"><circle class="c" cx="8" cy="8" r="8" transform="translate(-4575 -6700)"/></g><g transform="translate(5115 6844)"><circle class="c" cx="8" cy="8" r="8" transform="translate(-4575 -6700)"/></g><g transform="translate(5151 6844)"><circle class="c" cx="8" cy="8" r="8" transform="translate(-4575 -6700)"/></g><g transform="translate(5187 6844)"><circle class="c" cx="8" cy="8" r="8" transform="translate(-4575 -6700)"/></g><g transform="translate(5223 6844)"><circle class="c" cx="8" cy="8" r="8" transform="translate(-4575 -6700)"/></g><g transform="translate(5259 6844)"><circle class="c" cx="8" cy="8" r="8" transform="translate(-4575 -6700)"/></g><g transform="translate(5295 6844)"><circle class="c" cx="8" cy="8" r="8" transform="translate(-4575 -6700)"/></g><g transform="translate(5331 6844)"><circle class="c" cx="8" cy="8" r="8" transform="translate(-4575 -6700)"/></g><g transform="translate(5367 6844)"><circle class="c" cx="8" cy="8" r="8" transform="translate(-4575 -6700)"/></g><g transform="translate(5403 6844)"><circle class="c" cx="8" cy="8" r="8" transform="translate(-4575 -6700)"/></g><g transform="translate(5439 6844)"><circle class="c" cx="8" cy="8" r="8" transform="translate(-4575 -6700)"/></g><g transform="translate(5475 6844)"><circle class="c" cx="8" cy="8" r="8" transform="translate(-4575 -6700)"/></g><g transform="translate(5511 6844)"><circle class="c" cx="8" cy="8" r="8" transform="translate(-4575 -6700)"/></g><g transform="translate(5547 6844)"><circle class="c" cx="8" cy="8" r="8" transform="translate(-4575 -6700)"/></g><g transform="translate(5583 6844)"><circle class="c" cx="8" cy="8" r="8" transform="translate(-4575 -6700)"/></g><g transform="translate(5619 6844)"><circle class="c" cx="8" cy="8" r="8" transform="translate(-4575 -6700)"/></g><g transform="translate(5655 6844)"><circle class="c" cx="8" cy="8" r="8" transform="translate(-4575 -6700)"/></g><g transform="translate(5691 6844)"><circle class="c" cx="8" cy="8" r="8" transform="translate(-4575 -6700)"/></g><g transform="translate(5727 6844)"><circle class="c" cx="8" cy="8" r="8" transform="translate(-4575 -6700)"/></g><g transform="translate(5763 6844)"><circle class="c" cx="8" cy="8" r="8" transform="translate(-4575 -6700)"/></g><g transform="translate(5799 6844)"><circle class="c" cx="8" cy="8" r="8" transform="translate(-4575 -6700)"/></g><g transform="translate(5835 6844)"><circle class="c" cx="8" cy="8" r="8" transform="translate(-4575 -6700)"/></g><g transform="translate(5871 6844)"><circle class="c" cx="8" cy="8" r="8" transform="translate(-4575 -6700)"/></g><g transform="translate(5907 6844)"><circle class="c" cx="8" cy="8" r="8" transform="translate(-4575 -6700)"/></g><g transform="translate(5943 6844)"><circle class="c" cx="8" cy="8" r="8" transform="translate(-4575 -6700)"/></g><g transform="translate(5979 6844)"><circle class="c" cx="8" cy="8" r="8" transform="translate(-4575 -6700)"/></g><g transform="translate(6015 6844)"><circle class="c" cx="8" cy="8" r="8" transform="translate(-4575 -6700)"/></g><g transform="translate(6051 6844)"><circle class="c" cx="8" cy="8" r="8" transform="translate(-4575 -6700)"/></g><g transform="translate(6087 6844)"><circle class="c" cx="8" cy="8" r="8" transform="translate(-4575 -6700)"/></g><g transform="translate(6123 6844)"><circle class="c" cx="8" cy="8" r="8" transform="translate(-4575 -6700)"/></g><g transform="translate(6159 6844)"><circle class="c" cx="8" cy="8" r="8" transform="translate(-4575 -6700)"/></g><g transform="translate(6195 6844)"><circle class="c" cx="8" cy="8" r="8" transform="translate(-4575 -6700)"/></g><g transform="translate(6231 6844)"><circle class="c" cx="8" cy="8" r="8" transform="translate(-4575 -6700)"/></g><g transform="translate(6267 6844)"><circle class="c" cx="8" cy="8" r="8" transform="translate(-4575 -6700)"/></g><g transform="translate(6303 6844)"><circle class="c" cx="8" cy="8" r="8" transform="translate(-4575 -6700)"/></g><g transform="translate(6339 6844)"><circle class="c" cx="8" cy="8" r="8" transform="translate(-4575 -6700)"/></g><g transform="translate(6375 6844)"><circle class="c" cx="8" cy="8" r="8" transform="translate(-4575 -6700)"/></g><g transform="translate(6411 6844)"><circle class="c" cx="8" cy="8" r="8" transform="translate(-4575 -6700)"/></g><g transform="translate(6447 6844)"><circle class="c" cx="8" cy="8" r="8" transform="translate(-4575 -6700)"/></g><g transform="translate(6483 6844)"><circle class="c" cx="8" cy="8" r="8" transform="translate(-4575 -6700)"/></g><g transform="translate(4575 6880)"><circle class="c" cx="8" cy="8" r="8" transform="translate(-4575 -6700)"/></g><g transform="translate(4611 6880)"><circle class="c" cx="8" cy="8" r="8" transform="translate(-4575 -6700)"/></g><g transform="translate(4647 6880)"><circle class="c" cx="8" cy="8" r="8" transform="translate(-4575 -6700)"/></g><g transform="translate(4683 6880)"><circle class="c" cx="8" cy="8" r="8" transform="translate(-4575 -6700)"/></g><g transform="translate(4719 6880)"><circle class="c" cx="8" cy="8" r="8" transform="translate(-4575 -6700)"/></g><g transform="translate(4755 6880)"><circle class="c" cx="8" cy="8" r="8" transform="translate(-4575 -6700)"/></g><g transform="translate(4791 6880)"><circle class="c" cx="8" cy="8" r="8" transform="translate(-4575 -6700)"/></g><g transform="translate(4827 6880)"><circle class="c" cx="8" cy="8" r="8" transform="translate(-4575 -6700)"/></g><g transform="translate(4863 6880)"><circle class="c" cx="8" cy="8" r="8" transform="translate(-4575 -6700)"/></g><g transform="translate(4899 6880)"><circle class="c" cx="8" cy="8" r="8" transform="translate(-4575 -6700)"/></g><g transform="translate(4935 6880)"><circle class="c" cx="8" cy="8" r="8" transform="translate(-4575 -6700)"/></g><g transform="translate(4971 6880)"><circle class="c" cx="8" cy="8" r="8" transform="translate(-4575 -6700)"/></g><g transform="translate(5007 6880)"><circle class="c" cx="8" cy="8" r="8" transform="translate(-4575 -6700)"/></g><g transform="translate(5043 6880)"><circle class="c" cx="8" cy="8" r="8" transform="translate(-4575 -6700)"/></g><g transform="translate(5079 6880)"><circle class="c" cx="8" cy="8" r="8" transform="translate(-4575 -6700)"/></g><g transform="translate(5115 6880)"><circle class="c" cx="8" cy="8" r="8" transform="translate(-4575 -6700)"/></g><g transform="translate(5151 6880)"><circle class="c" cx="8" cy="8" r="8" transform="translate(-4575 -6700)"/></g><g transform="translate(5187 6880)"><circle class="c" cx="8" cy="8" r="8" transform="translate(-4575 -6700)"/></g><g transform="translate(5223 6880)"><circle class="c" cx="8" cy="8" r="8" transform="translate(-4575 -6700)"/></g><g transform="translate(5259 6880)"><circle class="c" cx="8" cy="8" r="8" transform="translate(-4575 -6700)"/></g><g transform="translate(5295 6880)"><circle class="c" cx="8" cy="8" r="8" transform="translate(-4575 -6700)"/></g><g transform="translate(5331 6880)"><circle class="c" cx="8" cy="8" r="8" transform="translate(-4575 -6700)"/></g><g transform="translate(5367 6880)"><circle class="c" cx="8" cy="8" r="8" transform="translate(-4575 -6700)"/></g><g transform="translate(5403 6880)"><circle class="c" cx="8" cy="8" r="8" transform="translate(-4575 -6700)"/></g><g transform="translate(5439 6880)"><circle class="c" cx="8" cy="8" r="8" transform="translate(-4575 -6700)"/></g><g transform="translate(5475 6880)"><circle class="c" cx="8" cy="8" r="8" transform="translate(-4575 -6700)"/></g><g transform="translate(5511 6880)"><circle class="c" cx="8" cy="8" r="8" transform="translate(-4575 -6700)"/></g><g transform="translate(5547 6880)"><circle class="c" cx="8" cy="8" r="8" transform="translate(-4575 -6700)"/></g><g transform="translate(5583 6880)"><circle class="c" cx="8" cy="8" r="8" transform="translate(-4575 -6700)"/></g><g transform="translate(5619 6880)"><circle class="c" cx="8" cy="8" r="8" transform="translate(-4575 -6700)"/></g><g transform="translate(5655 6880)"><circle class="c" cx="8" cy="8" r="8" transform="translate(-4575 -6700)"/></g><g transform="translate(5691 6880)"><circle class="c" cx="8" cy="8" r="8" transform="translate(-4575 -6700)"/></g><g transform="translate(5727 6880)"><circle class="c" cx="8" cy="8" r="8" transform="translate(-4575 -6700)"/></g><g transform="translate(5763 6880)"><circle class="c" cx="8" cy="8" r="8" transform="translate(-4575 -6700)"/></g><g transform="translate(5799 6880)"><circle class="c" cx="8" cy="8" r="8" transform="translate(-4575 -6700)"/></g><g transform="translate(5835 6880)"><circle class="c" cx="8" cy="8" r="8" transform="translate(-4575 -6700)"/></g><g transform="translate(5871 6880)"><circle class="c" cx="8" cy="8" r="8" transform="translate(-4575 -6700)"/></g><g transform="translate(5907 6880)"><circle class="c" cx="8" cy="8" r="8" transform="translate(-4575 -6700)"/></g><g transform="translate(5943 6880)"><circle class="c" cx="8" cy="8" r="8" transform="translate(-4575 -6700)"/></g><g transform="translate(5979 6880)"><circle class="c" cx="8" cy="8" r="8" transform="translate(-4575 -6700)"/></g><g transform="translate(6015 6880)"><circle class="c" cx="8" cy="8" r="8" transform="translate(-4575 -6700)"/></g><g transform="translate(6051 6880)"><circle class="c" cx="8" cy="8" r="8" transform="translate(-4575 -6700)"/></g><g transform="translate(6087 6880)"><circle class="c" cx="8" cy="8" r="8" transform="translate(-4575 -6700)"/></g><g transform="translate(6123 6880)"><circle class="c" cx="8" cy="8" r="8" transform="translate(-4575 -6700)"/></g><g transform="translate(6159 6880)"><circle class="c" cx="8" cy="8" r="8" transform="translate(-4575 -6700)"/></g><g transform="translate(6195 6880)"><circle class="c" cx="8" cy="8" r="8" transform="translate(-4575 -6700)"/></g><g transform="translate(6231 6880)"><circle class="c" cx="8" cy="8" r="8" transform="translate(-4575 -6700)"/></g><g transform="translate(6267 6880)"><circle class="c" cx="8" cy="8" r="8" transform="translate(-4575 -6700)"/></g><g transform="translate(6303 6880)"><circle class="c" cx="8" cy="8" r="8" transform="translate(-4575 -6700)"/></g><g transform="translate(6339 6880)"><circle class="c" cx="8" cy="8" r="8" transform="translate(-4575 -6700)"/></g><g transform="translate(6375 6880)"><circle class="c" cx="8" cy="8" r="8" transform="translate(-4575 -6700)"/></g><g transform="translate(6411 6880)"><circle class="c" cx="8" cy="8" r="8" transform="translate(-4575 -6700)"/></g><g transform="translate(6447 6880)"><circle class="c" cx="8" cy="8" r="8" transform="translate(-4575 -6700)"/></g><g transform="translate(6483 6880)"><circle class="c" cx="8" cy="8" r="8" transform="translate(-4575 -6700)"/></g><g transform="translate(4575 6916)"><circle class="c" cx="8" cy="8" r="8" transform="translate(-4575 -6700)"/></g><g transform="translate(4611 6916)"><circle class="c" cx="8" cy="8" r="8" transform="translate(-4575 -6700)"/></g><g transform="translate(4647 6916)"><circle class="c" cx="8" cy="8" r="8" transform="translate(-4575 -6700)"/></g><g transform="translate(4683 6916)"><circle class="c" cx="8" cy="8" r="8" transform="translate(-4575 -6700)"/></g><g transform="translate(4719 6916)"><circle class="c" cx="8" cy="8" r="8" transform="translate(-4575 -6700)"/></g><g transform="translate(4755 6916)"><circle class="c" cx="8" cy="8" r="8" transform="translate(-4575 -6700)"/></g><g transform="translate(4791 6916)"><circle class="c" cx="8" cy="8" r="8" transform="translate(-4575 -6700)"/></g><g transform="translate(4827 6916)"><circle class="c" cx="8" cy="8" r="8" transform="translate(-4575 -6700)"/></g><g transform="translate(4863 6916)"><circle class="c" cx="8" cy="8" r="8" transform="translate(-4575 -6700)"/></g><g transform="translate(4899 6916)"><circle class="c" cx="8" cy="8" r="8" transform="translate(-4575 -6700)"/></g><g transform="translate(4935 6916)"><circle class="c" cx="8" cy="8" r="8" transform="translate(-4575 -6700)"/></g><g transform="translate(4971 6916)"><circle class="c" cx="8" cy="8" r="8" transform="translate(-4575 -6700)"/></g><g transform="translate(5007 6916)"><circle class="c" cx="8" cy="8" r="8" transform="translate(-4575 -6700)"/></g><g transform="translate(5043 6916)"><circle class="c" cx="8" cy="8" r="8" transform="translate(-4575 -6700)"/></g><g transform="translate(5079 6916)"><circle class="c" cx="8" cy="8" r="8" transform="translate(-4575 -6700)"/></g><g transform="translate(5115 6916)"><circle class="c" cx="8" cy="8" r="8" transform="translate(-4575 -6700)"/></g><g transform="translate(5151 6916)"><circle class="c" cx="8" cy="8" r="8" transform="translate(-4575 -6700)"/></g><g transform="translate(5187 6916)"><circle class="c" cx="8" cy="8" r="8" transform="translate(-4575 -6700)"/></g><g transform="translate(5223 6916)"><circle class="c" cx="8" cy="8" r="8" transform="translate(-4575 -6700)"/></g><g transform="translate(5259 6916)"><circle class="c" cx="8" cy="8" r="8" transform="translate(-4575 -6700)"/></g><g transform="translate(5295 6916)"><circle class="c" cx="8" cy="8" r="8" transform="translate(-4575 -6700)"/></g><g transform="translate(5331 6916)"><circle class="c" cx="8" cy="8" r="8" transform="translate(-4575 -6700)"/></g><g transform="translate(5367 6916)"><circle class="c" cx="8" cy="8" r="8" transform="translate(-4575 -6700)"/></g><g transform="translate(5403 6916)"><circle class="c" cx="8" cy="8" r="8" transform="translate(-4575 -6700)"/></g><g transform="translate(5439 6916)"><circle class="c" cx="8" cy="8" r="8" transform="translate(-4575 -6700)"/></g><g transform="translate(5475 6916)"><circle class="c" cx="8" cy="8" r="8" transform="translate(-4575 -6700)"/></g><g transform="translate(5511 6916)"><circle class="c" cx="8" cy="8" r="8" transform="translate(-4575 -6700)"/></g><g transform="translate(5547 6916)"><circle class="c" cx="8" cy="8" r="8" transform="translate(-4575 -6700)"/></g><g transform="translate(5583 6916)"><circle class="c" cx="8" cy="8" r="8" transform="translate(-4575 -6700)"/></g><g transform="translate(5619 6916)"><circle class="c" cx="8" cy="8" r="8" transform="translate(-4575 -6700)"/></g><g transform="translate(5655 6916)"><circle class="c" cx="8" cy="8" r="8" transform="translate(-4575 -6700)"/></g><g transform="translate(5691 6916)"><circle class="c" cx="8" cy="8" r="8" transform="translate(-4575 -6700)"/></g><g transform="translate(5727 6916)"><circle class="c" cx="8" cy="8" r="8" transform="translate(-4575 -6700)"/></g><g transform="translate(5763 6916)"><circle class="c" cx="8" cy="8" r="8" transform="translate(-4575 -6700)"/></g><g transform="translate(5799 6916)"><circle class="c" cx="8" cy="8" r="8" transform="translate(-4575 -6700)"/></g><g transform="translate(5835 6916)"><circle class="c" cx="8" cy="8" r="8" transform="translate(-4575 -6700)"/></g><g transform="translate(5871 6916)"><circle class="c" cx="8" cy="8" r="8" transform="translate(-4575 -6700)"/></g><g transform="translate(5907 6916)"><circle class="c" cx="8" cy="8" r="8" transform="translate(-4575 -6700)"/></g><g transform="translate(5943 6916)"><circle class="c" cx="8" cy="8" r="8" transform="translate(-4575 -6700)"/></g><g transform="translate(5979 6916)"><circle class="c" cx="8" cy="8" r="8" transform="translate(-4575 -6700)"/></g><g transform="translate(6015 6916)"><circle class="c" cx="8" cy="8" r="8" transform="translate(-4575 -6700)"/></g><g transform="translate(6051 6916)"><circle class="c" cx="8" cy="8" r="8" transform="translate(-4575 -6700)"/></g><g transform="translate(6087 6916)"><circle class="c" cx="8" cy="8" r="8" transform="translate(-4575 -6700)"/></g><g transform="translate(6123 6916)"><circle class="c" cx="8" cy="8" r="8" transform="translate(-4575 -6700)"/></g><g transform="translate(6159 6916)"><circle class="c" cx="8" cy="8" r="8" transform="translate(-4575 -6700)"/></g><g transform="translate(6195 6916)"><circle class="c" cx="8" cy="8" r="8" transform="translate(-4575 -6700)"/></g><g transform="translate(6231 6916)"><circle class="c" cx="8" cy="8" r="8" transform="translate(-4575 -6700)"/></g><g transform="translate(6267 6916)"><circle class="c" cx="8" cy="8" r="8" transform="translate(-4575 -6700)"/></g><g transform="translate(6303 6916)"><circle class="c" cx="8" cy="8" r="8" transform="translate(-4575 -6700)"/></g><g transform="translate(6339 6916)"><circle class="c" cx="8" cy="8" r="8" transform="translate(-4575 -6700)"/></g><g transform="translate(6375 6916)"><circle class="c" cx="8" cy="8" r="8" transform="translate(-4575 -6700)"/></g><g transform="translate(6411 6916)"><circle class="c" cx="8" cy="8" r="8" transform="translate(-4575 -6700)"/></g><g transform="translate(6447 6916)"><circle class="c" cx="8" cy="8" r="8" transform="translate(-4575 -6700)"/></g><g transform="translate(6483 6916)"><circle class="c" cx="8" cy="8" r="8" transform="translate(-4575 -6700)"/></g></g></svg>