<svg xmlns="http://www.w3.org/2000/svg" width="100.105" height="55.714" viewBox="0 0 100.105 55.714"><defs><style>.a,.b,.c{fill:#a77bff;}.a{font-size:32px;font-family:Narrenschiff-Regular, Narrenschiff;}.c{fill-rule:evenodd;}</style></defs><text class="a" transform="translate(41.398 31)"><tspan x="0" y="0">Best</tspan></text><g transform="translate(41.967 37.229)"><path class="b" d="M80.7,50H75.964V62.5H73.289V50H68.553V47.435H80.7Z" transform="translate(-68.553 -47.435)"/><path class="b" d="M80.5,61.57c-3.183,0-5.78-2.942-5.78-6.527V48.194h2.623v6.849c0,2.142,1.417,3.879,3.157,3.879s3.13-1.738,3.13-3.879V48.194h2.65v6.849C86.28,58.628,83.683,61.57,80.5,61.57Z" transform="translate(-60.962 -46.501)"/><path class="b" d="M89.668,51.99h-3.8V62.5H83.006V51.99H80.385V49.128h2.621V47.435h2.862v1.693h3.8Z" transform="translate(-53.99 -47.435)"/><path class="b" d="M90.97,61.465a6.655,6.655,0,1,1,6.153-6.637A6.432,6.432,0,0,1,90.97,61.465Zm0-10.6a3.989,3.989,0,1,0,3.5,3.96A3.755,3.755,0,0,0,90.97,50.869Z" transform="translate(-48.57 -46.501)"/><path class="b" d="M99.235,48.494l-.8,2.354a3.334,3.334,0,0,0-1.122-.214,3.386,3.386,0,0,0-2.7,1.258,5.819,5.819,0,0,1-.457.562v9.175H91.663V50.419a.861.861,0,0,0-.8-.589V48.253h2.6a.771.771,0,0,1,.694.8,5.837,5.837,0,0,1,3.159-.91A5.026,5.026,0,0,1,99.235,48.494Z" transform="translate(-41.097 -46.56)"/></g><path class="c" d="M51.982,52.986a6.57,6.57,0,0,1,.4,1.9,39.351,39.351,0,0,0,3.554,10.239,11.244,11.244,0,0,1,1.2,5.338c-.038,1.654-.016,3.309-.007,4.965a2.022,2.022,0,0,0,1.475,2.253c1.459.568,2.934,1.091,4.379,1.695.683.285.87.04.868-.639,0-2.282.009-4.566.011-6.848,0-3.311-.029-6.622.025-9.93a2.424,2.424,0,0,0-1.381-2.441,16.1,16.1,0,0,1-4.33-3.064,7.364,7.364,0,0,1-1.1-8.649,10.034,10.034,0,0,1,6.13-4.927c4.747-1.528,9.3-1.091,13.367,2.13,4.321,3.425,4.259,9.312-.031,12.8a13.139,13.139,0,0,1-7.612,2.857c-.808.057-1.046.333-1.044,1.177q.04,8.945,0,17.89a2.158,2.158,0,0,0,1.285,2.22c1.075.511,2.093,1.158,3.154,1.7,1.432.73,1.992.352,2-1.319.009-1.771.02-3.539,0-5.307-.009-.661.161-.858.837-.83a23.388,23.388,0,0,0,4.163.109c2.329-.316,3.592-1.721,3.676-4.247.069-2.08.085-4.164.207-6.239.1-1.685.136-1.478,1.309-1.566a2.024,2.024,0,0,0,1.847-2.187,11.76,11.76,0,0,0-.948-4.906,28.163,28.163,0,0,1-2.271-12.733c.029-.568-.009-1.143.04-1.709a3.587,3.587,0,0,0-1.881-3.58,25.68,25.68,0,0,0-9.287-3.665,2.06,2.06,0,0,1-1.071-.3h-4.66a17.492,17.492,0,0,1-2.2.226c-5.082.5-10.155,5.075-11.64,10.37a37.2,37.2,0,0,0-.473,3.789Z" transform="translate(-51.982 -28.297)"/></svg>