<svg xmlns="http://www.w3.org/2000/svg" width="120" height="91" viewBox="0 0 120 91"><defs><style>.a{fill:#fff;}.b{fill:#a77bff;fill-rule:evenodd;}</style></defs><g transform="translate(-760 -1252)"><g transform="translate(760 1252)"><rect class="a" width="120" height="91" rx="25"/></g><g transform="translate(831.091 1287.396)"><path class="b" d="M-360.235-1073.454c-.348.317-.648.58-.937.853-.959.909-1.9,1.84-2.881,2.723a1.237,1.237,0,0,0-.412,1.069c.059,2.355.11,4.709.14,7.064a2.186,2.186,0,0,1-2.718,2.266,2.146,2.146,0,0,1-1.656-2.116c-.023-2.643.038-5.288-.033-7.93a4.218,4.218,0,0,1,1.582-3.5c2.123-1.87,4.186-3.808,6.265-5.726a1.032,1.032,0,0,0,.337-.529c.223-1.49.417-2.985.616-4.48a1.2,1.2,0,0,0-.026-.256c-1.828,1.625-4.106,1.969-6.338,2.4a2.1,2.1,0,0,1-2.269-.795,2.2,2.2,0,0,1-.178-2.359,2.061,2.061,0,0,1,1.319-1.113c1.022-.305,2.036-.64,3.064-.922a4.651,4.651,0,0,0,2.493-1.735,26.933,26.933,0,0,0,3.423-5.921,2.188,2.188,0,0,1,2.137-1.506,2.083,2.083,0,0,1,2.125,2.133c-.107,1.535-.348,3.061-.553,4.587-.517,3.843-1.05,7.685-1.567,11.528a3.083,3.083,0,0,0,.005.907q.658,3.934,1.352,7.861a1.616,1.616,0,0,0,.313.675q2.243,2.922,4.513,5.826a2.329,2.329,0,0,1,.468,2.193,2.07,2.07,0,0,1-1.662,1.543,2.127,2.127,0,0,1-2.2-.847c-1.27-1.63-2.532-3.267-3.8-4.9-1.763-2.263-1.759-2.263-2.211-5.086-.189-1.187-.408-2.37-.615-3.554C-360.16-1073.186-360.189-1073.277-360.235-1073.454Z" transform="translate(380.522 1109.707)"/><path class="b" d="M-389.705-1125.023c0-.895-.03-1.789.025-2.678a.745.745,0,0,1,.516-.508c.923-.06,1.851-.056,2.777-.036.449.009.628.343.668.755.011.118.008.237.013.356a.931.931,0,0,0,.781,1,4.416,4.416,0,0,1,1.206.522.591.591,0,0,0,.815-.077c1.063-1.06,1.369-.658,2.21.156.389.376.748.784,1.1,1.2a.822.822,0,0,1-.018,1.19c-.056.063-.1.137-.16.2a.922.922,0,0,0-.154,1.3c.249.391.329.887.543,1.306a.879.879,0,0,0,.519.437c1.175.217,1.448-.083,1.5,1.742.017.588-.058,1.179-.092,1.769-.027.463-.337.63-.738.693-.1.015-.2.01-.3.016a.92.92,0,0,0-1,.77,4.944,4.944,0,0,1-.54,1.307.555.555,0,0,0,.055.729c.022.026.037.057.059.083.821,1.009.856,1.078-.156,2.209-.382.427-.831.795-1.255,1.183a.678.678,0,0,1-1.042,0c-.6-.68-1.152-.576-1.933-.238-.86.371-1.518.683-1.438,1.77a.621.621,0,0,1-.676.626c-.858.013-1.716.018-2.573,0a.646.646,0,0,1-.7-.7c.022-.915-.451-1.3-1.276-1.632-.854-.347-1.519-.583-2.2.239a.579.579,0,0,1-.872-.01,26.574,26.574,0,0,1-1.865-1.929.915.915,0,0,1-.063-.866c.522-.716,1.138-1.364,1.732-2.052.577.762.582,1.055.095,1.82a.909.909,0,0,0,.432,1.462.467.467,0,0,0,.358-.05c.207-.112.389-.27.59-.395a1.145,1.145,0,0,1,1.283,0,6.634,6.634,0,0,0,1.755.772,1.357,1.357,0,0,1,1.2,1.346c.046.514.247.771.827.755.511-.015.722-.174.772-.689a1.377,1.377,0,0,1,1.2-1.407,4.392,4.392,0,0,0,1.574-.672,1.384,1.384,0,0,1,1.77.069c.183.134.492.357.593.294a3.519,3.519,0,0,0,.789-.768c.051-.061-.015-.251-.069-.361-.12-.242-.264-.473-.4-.7a1.1,1.1,0,0,1,.029-1.19,9.44,9.44,0,0,0,.824-1.953,1.337,1.337,0,0,1,1.181-1.071.874.874,0,0,0,.718-1.325.609.609,0,0,0-.433-.26,1.493,1.493,0,0,1-1.527-1.332,4.439,4.439,0,0,0-.671-1.575,1.464,1.464,0,0,1,.094-1.783c.125-.187.325-.491.258-.6a3.662,3.662,0,0,0-.755-.8c-.046-.041-.22.024-.313.078-.234.135-.45.3-.684.439a1.058,1.058,0,0,1-1.143-.016,7.306,7.306,0,0,0-1.848-.8,1.455,1.455,0,0,1-1.2-1.37c-.04-.22-.105-.585-.224-.614a3.517,3.517,0,0,0-1.1-.021c-.068.006-.141.2-.175.323-.083.292-.131.594-.218.884A.891.891,0,0,1-389.705-1125.023Z" transform="translate(396.068 1128.259)"/><path class="b" d="M-339.551-1114.946a4.624,4.624,0,0,1-4.593-4.706,4.662,4.662,0,0,1,4.6-4.719,4.683,4.683,0,0,1,4.623,4.647A4.631,4.631,0,0,1-339.551-1114.946Z" transform="translate(366.242 1126.026)"/><path class="b" d="M-377.6-1107.873a3.088,3.088,0,0,1-3.033,3.212,3.139,3.139,0,0,1-3.128-3.136,3.106,3.106,0,0,1,3-3.2A3.049,3.049,0,0,1-377.6-1107.873Z" transform="translate(388.996 1118.341)"/></g><path class="b" d="M-507.144-1106.506c.14,1.062.349,2.089.394,3.122a3.9,3.9,0,0,0,1.555,3.013c1.835,1.54,3.544,3.23,5.334,4.826a3.883,3.883,0,0,1,1.4,3.137c-.041,2.624-.006,5.249-.016,7.873a2.116,2.116,0,0,1-1.255,2.018A2.035,2.035,0,0,1-502-1082.8a2.191,2.191,0,0,1-.8-1.878q.075-3.573.117-7.146a.885.885,0,0,0-.218-.587c-1.2-1.167-2.422-2.312-3.638-3.461-.067-.064-.146-.115-.267-.208-.053.187-.109.33-.134.477-.3,1.76-.609,3.518-.9,5.281a3.23,3.23,0,0,1-.65,1.529c-1.631,2.075-3.238,4.169-4.859,6.252a2.17,2.17,0,0,1-3.1.527,2.258,2.258,0,0,1-.338-3.228c1.485-1.924,2.981-3.839,4.462-5.766a1.546,1.546,0,0,0,.3-.638c.47-2.645.982-5.285,1.349-7.945a10.116,10.116,0,0,0-.264-2.627c-.61-4.528-1.235-9.055-1.844-13.583a2.193,2.193,0,0,1,1.582-2.359,2.221,2.221,0,0,1,2.583,1.278c.812,1.587,1.668,3.153,2.524,4.717a11.926,11.926,0,0,0,.692.988,4.884,4.884,0,0,0,2.934,2.056c.919.231,1.819.537,2.728.812a2.154,2.154,0,0,1,1.513,2.345,1.942,1.942,0,0,1-2.076,1.857,14.339,14.339,0,0,1-4.225-.927,5,5,0,0,1-2.43-1.411C-506.984-1106.475-507.044-1106.475-507.144-1106.506Z" transform="translate(1296.802 2409.898)"/><path class="b" d="M-444.073-1104.863c-.144.711-.438,1.025-1.322,1.012a1.67,1.67,0,0,0-1.945,1.532,6.677,6.677,0,0,1-.793,1.8.7.7,0,0,0,.083.908c.281.33.523.693.787,1.038a1.17,1.17,0,0,1,.053,1.512,14.549,14.549,0,0,1-3.063,3.127,1.013,1.013,0,0,1-1.372-.023c-.42-.325-.811-.69-1.249-.987a.739.739,0,0,0-.6-.041c-.938.375-1.852.81-2.794,1.173a.675.675,0,0,0-.484.631c-.061.51-.11,1.021-.194,1.528a1.087,1.087,0,0,1-.943.961,12.269,12.269,0,0,1-4.36-.005c-.631-.115-1.012-.55-.987-1.4a1.719,1.719,0,0,0-1.546-2.044,6.189,6.189,0,0,1-1.741-.8.651.651,0,0,0-.86.084c-.327.286-.671.552-1.007.828a1.081,1.081,0,0,1-1.6,0c-.258-.211-.5-.44-.776-.682.843-.766,1.634-1.508,2.455-2.216a3.8,3.8,0,0,1,.877-.5,1.236,1.236,0,0,1,1.28.11,11.1,11.1,0,0,0,3.664,1.557,1.113,1.113,0,0,1,.88.744,12.369,12.369,0,0,1,.419,1.673c.07.4.228.615.648.592.064,0,.129.011.193.014,1.265.057,1.261.057,1.512-1.176a8.456,8.456,0,0,1,.228-.886,1.438,1.438,0,0,1,1.164-1.026,10.339,10.339,0,0,0,3.44-1.471,1.233,1.233,0,0,1,1.361-.1,13.352,13.352,0,0,1,1.344.843c.283.207.483.256.729-.035.322-.379.872-.7.948-1.111.066-.362-.372-.83-.619-1.231a1.886,1.886,0,0,1-.034-2.278,9.543,9.543,0,0,0,1.329-3.338,2.045,2.045,0,0,1,2.387-1.263c.421.161.829.353,1.249.513C-444.926-1105.147-444.513-1105.016-444.073-1104.863Z" transform="translate(1270.077 2402.807)"/><path class="b" d="M-478.492-1127.757c-1.415-.443-2.851-.887-4.283-1.343a1.308,1.308,0,0,1-.994-1.32c.026-.977.1-1.955.2-2.927a1.114,1.114,0,0,1,1.075-.941,11.739,11.739,0,0,0,1.428-.2.764.764,0,0,0,.446-.4c.406-.925.759-1.872,1.169-2.795a.672.672,0,0,0-.052-.792c-.311-.389-.609-.79-.9-1.2a1.035,1.035,0,0,1,.019-1.454q1.454-1.572,3-3.052a1.066,1.066,0,0,1,1.528.055c.357.3.724.589,1.081.889a.589.589,0,0,0,.706.051c.905-.409,1.817-.807,2.746-1.156a.684.684,0,0,0,.469-.643c.073-.525.117-1.054.2-1.576a.99.99,0,0,1,.852-.867,14.09,14.09,0,0,1,4.225-.057,1.288,1.288,0,0,1,1.224,1.35q.052.527.105,1.054c.035.349.1.662.524.76a.43.43,0,0,1,.244.305c.091.714.154,1.431.229,2.168a20.455,20.455,0,0,1-2.092-.638,1.421,1.421,0,0,1-.678-.747,9.553,9.553,0,0,1-.436-1.721c-.06-.325-.205-.435-.515-.425-.4.014-.805.011-1.207,0-.272-.006-.4.107-.449.382-.109.566-.236,1.131-.4,1.684a1.308,1.308,0,0,1-1.091.957,10.094,10.094,0,0,0-3.4,1.436,1.5,1.5,0,0,1-1.678.061,11.047,11.047,0,0,1-1.161-.776c-.232-.172-.424-.213-.628.019-.031.036-.074.063-.106.1a4.621,4.621,0,0,0-.9,1c-.231.485.395.727.537,1.134a6.815,6.815,0,0,1,.434,1.011,1.676,1.676,0,0,1-.128,1.044,12.744,12.744,0,0,0-1.535,3.78,1.511,1.511,0,0,1-1.257,1.121c-.431.124-.882.177-1.314.3a.571.571,0,0,0-.287.3,1.253,1.253,0,0,0-.069.425c-.105,1.2-.007,1.331,1.151,1.572C-479-1129.531-478.706-1129.216-478.492-1127.757Z" transform="translate(1277.537 2426.773)"/><path class="b" d="M-509.059-1141.482a4.55,4.55,0,0,1-4.5,4.637,4.569,4.569,0,0,1-4.556-4.593,4.584,4.584,0,0,1,4.488-4.666A4.556,4.556,0,0,1-509.059-1141.482Z" transform="translate(1297.267 2425.905)"/><path class="b" d="M-463.89-1119.427a7.836,7.836,0,0,1,7.742-8,7.875,7.875,0,0,1,7.83,7.943,7.93,7.93,0,0,1-7.792,7.986A7.9,7.9,0,0,1-463.89-1119.427Zm14.237-.043a6.492,6.492,0,0,0-6.445-6.618,6.523,6.523,0,0,0-6.5,6.623,6.591,6.591,0,0,0,6.5,6.628A6.555,6.555,0,0,0-449.654-1119.471Z" transform="translate(1266.119 2415.18)"/><path class="b" d="M-407.817-1171.909a13.332,13.332,0,0,1-8.923,12.752,12.4,12.4,0,0,1-13-2.618,13.615,13.615,0,0,1-1.17-19.119,13.083,13.083,0,0,1,21.359,2.282A13.822,13.822,0,0,1-407.817-1171.909Zm-1.759.01a11.771,11.771,0,0,0-3.845-8.752,11.256,11.256,0,0,0-14-.994,11.83,11.83,0,0,0-3.926,14.879,11.44,11.44,0,0,0,12.271,6.4A11.659,11.659,0,0,0-409.576-1171.9Z" transform="translate(1249.111 2448.483)"/><path class="b" d="M-405.05-1167.083c0,.675.01,1.351,0,2.026a.6.6,0,0,0,.337.611,2.022,2.022,0,0,1,.73.729.642.642,0,0,0,.682.38c1.061-.013,2.123-.009,3.184,0,.325,0,.76-.087.762.42,0,.535-.449.446-.789.448-1.078.007-2.155.011-3.233,0a.553.553,0,0,0-.589.36,1.626,1.626,0,0,1-1.8.914,1.714,1.714,0,0,1-1.372-1.383,1.673,1.673,0,0,1,.853-1.836.656.656,0,0,0,.406-.711c-.017-1.335,0-2.669-.009-4,0-.323.055-.613.437-.612.365,0,.406.292.4.589C-405.053-1168.466-405.05-1167.774-405.05-1167.083Zm.422,4.161a.862.862,0,0,0-.848-.868.892.892,0,0,0-.843.885.878.878,0,0,0,.862.86A.842.842,0,0,0-404.628-1162.922Z" transform="translate(1233.536 2439.486)"/><path class="b" d="M-423.676-1142.578c-.17-.147-.358-.235-.4-.368a.519.519,0,0,1,.1-.465,4.674,4.674,0,0,1,.99-.575.515.515,0,0,1,.442.164c.077.09.092.369.022.427C-422.872-1143.107-423.262-1142.863-423.676-1142.578Z" transform="translate(1243.257 2424.696)"/><path class="b" d="M-385.608-1144.272c.417.283.821.529,1.183.826.069.057.026.363-.066.465a.5.5,0,0,1-.459.1,3.749,3.749,0,0,1-.9-.532.618.618,0,0,1-.125-.5C-385.957-1144.03-385.774-1144.119-385.608-1144.272Z" transform="translate(1221.367 2424.853)"/><path class="b" d="M-392.293-1134.947c-.147.166-.236.344-.373.4a.457.457,0,0,1-.422-.1,5.562,5.562,0,0,1-.583-1.044.514.514,0,0,1,.173-.443.448.448,0,0,1,.433,0C-392.789-1135.775-392.561-1135.374-392.293-1134.947Z" transform="translate(1225.788 2420.214)"/><path class="b" d="M-414.26-1173.8c-.149.163-.24.347-.371.383a.518.518,0,0,1-.456-.122,4.479,4.479,0,0,1-.538-.962.5.5,0,0,1,.118-.456c.106-.087.414-.114.47-.041C-414.759-1174.639-414.534-1174.237-414.26-1173.8Z" transform="translate(1238.403 2442.528)"/><path class="b" d="M-403.36-1132.54a1.328,1.328,0,0,1-.014.522,1.929,1.929,0,0,1-.407.44c-.137-.15-.356-.282-.392-.452a2.348,2.348,0,0,1,0-.953c.036-.168.263-.3.4-.441a1.884,1.884,0,0,1,.393.411c.065.127.013.313.013.474Z" transform="translate(1231.842 2418.622)"/><path class="b" d="M-422.923-1165.041c-.4-.273-.787-.515-1.14-.8-.069-.056-.046-.324.028-.427a.454.454,0,0,1,.4-.162,5.921,5.921,0,0,1,1.067.618c.09.066.1.334.046.473C-422.567-1165.226-422.752-1165.162-422.923-1165.041Z" transform="translate(1243.264 2437.589)"/><path class="b" d="M-403.357-1177.342a1.4,1.4,0,0,1-.014.522c-.072.161-.274.4-.377.379a.623.623,0,0,1-.42-.388,2.542,2.542,0,0,1,0-1,.625.625,0,0,1,.432-.375c.1-.017.29.227.365.388A1.22,1.22,0,0,1-403.357-1177.342Z" transform="translate(1231.84 2444.345)"/><path class="b" d="M-414.294-1135.723c-.261.406-.492.8-.769,1.166-.053.069-.334.057-.423-.02a.519.519,0,0,1-.171-.442,5.1,5.1,0,0,1,.593-1.035.526.526,0,0,1,.47-.069C-414.478-1136.084-414.415-1135.895-414.294-1135.723Z" transform="translate(1238.417 2420.186)"/><path class="b" d="M-384.828-1166.674c.172.142.368.225.386.336a.624.624,0,0,1-.137.5,3.752,3.752,0,0,1-.911.532.5.5,0,0,1-.457-.114c-.086-.107-.114-.413-.04-.473C-385.632-1166.174-385.234-1166.407-384.828-1166.674Z" transform="translate(1221.393 2437.721)"/><path class="b" d="M-393.313-1173.362c-.324-.061-.52-.252-.406-.542a4.611,4.611,0,0,1,.594-1.038.493.493,0,0,1,.47-.062c.118.061.255.319.212.416a8.966,8.966,0,0,1-.628,1.125C-393.112-1173.4-393.241-1173.39-393.313-1173.362Z" transform="translate(1225.829 2442.525)"/><path class="b" d="M-426.341-1153.864c-.365-.011-.883.14-.868-.45.014-.556.524-.378.865-.407a.926.926,0,0,1,.475.016c.169.089.4.271.4.41s-.228.327-.4.417C-425.991-1153.81-426.18-1153.864-426.341-1153.864Z" transform="translate(1245.047 2430.868)"/><path class="b" d="M-382.366-1153.868a1.265,1.265,0,0,1-.521-.015c-.157-.079-.352-.274-.352-.417a.559.559,0,0,1,.366-.392,2.435,2.435,0,0,1,.954-.007c.169.034.3.254.449.39a2.9,2.9,0,0,1-.471.435c-.107.063-.282.011-.426.011Z" transform="translate(1219.789 2430.868)"/></g></svg>