<svg xmlns="http://www.w3.org/2000/svg" width="100.105" height="48.837" viewBox="0 0 100.105 48.837"><defs><style>.a,.b{fill:#543e80;}.b{fill-rule:evenodd;}</style></defs><path class="a" d="M11.328-13.216a5.287,5.287,0,0,0,1.664-4.032A6.355,6.355,0,0,0,6.464-23.36a4.361,4.361,0,0,0-1.952.416v-.416H1.28V0H4.512L7.456-.128c4.16-.192,7.488-3.04,7.488-6.976A7.2,7.2,0,0,0,11.328-13.216ZM6.464-20.288a3.3,3.3,0,0,1,3.488,3.04,3.326,3.326,0,0,1-3.488,3.072H4.512v-5.44A3.586,3.586,0,0,1,6.464-20.288Zm.992,17.12H4.512V-11.1H7.456a4.676,4.676,0,0,1,1.92.384,4.116,4.116,0,0,1,2.5,3.616A4.119,4.119,0,0,1,7.456-3.168ZM24.8-16h-.288a7.9,7.9,0,0,0-7.648,8.1A7.889,7.889,0,0,0,24.512.16,7.522,7.522,0,0,0,31.2-3.872l-3.488-.576a4.431,4.431,0,0,1-3.2,1.408A4.489,4.489,0,0,1,20.48-5.952H32.032A10.174,10.174,0,0,0,32.16-7.9,7.891,7.891,0,0,0,24.8-16ZM20.32-9.184A4.471,4.471,0,0,1,24.512-12.8a4.511,4.511,0,0,1,3.616,1.952,8.081,8.081,0,0,1,.7,1.664Zm19.552-.128-.992-.32c-.288-.128-.832-.352-1.408-.672-.7-.384-.992-.672-.992-.9,0-.576,0-1.728,2.4-1.728,1.28,0,2.4.736,2.4,1.7h3.072c0-2.688-2.4-4.8-5.472-4.8-3.328,0-5.44,1.824-5.44,4.8,0,2.368,1.984,3.648,5.344,4.768,2.336.832,2.5,1.28,2.5,1.664,0,.832-.736,1.664-2.4,1.664-1.216,0-2.4-.832-2.4-1.664H33.44c0,2.688,2.368,4.8,5.44,4.8,3.232,0,5.472-2.016,5.472-4.8C44.352-7.744,41.568-8.7,39.872-9.312ZM56.1-16H51.552v-7.36H48.128V-16H44.992v3.424h3.136V0h3.424V-12.576H56.1Z" transform="translate(41.398 24.123)"/><g transform="translate(41.967 30.352)"><path class="a" d="M80.7,50H75.964V62.5H73.289V50H68.553V47.435H80.7Z" transform="translate(-68.553 -47.435)"/><path class="a" d="M80.5,61.57c-3.183,0-5.78-2.942-5.78-6.527V48.194h2.623v6.849c0,2.142,1.417,3.879,3.157,3.879s3.13-1.738,3.13-3.879V48.194h2.65v6.849C86.28,58.628,83.683,61.57,80.5,61.57Z" transform="translate(-60.962 -46.501)"/><path class="a" d="M89.668,51.99h-3.8V62.5H83.006V51.99H80.385V49.128h2.621V47.435h2.862v1.693h3.8Z" transform="translate(-53.99 -47.435)"/><path class="a" d="M90.97,61.465a6.655,6.655,0,1,1,6.153-6.637A6.432,6.432,0,0,1,90.97,61.465Zm0-10.6a3.989,3.989,0,1,0,3.5,3.96A3.755,3.755,0,0,0,90.97,50.869Z" transform="translate(-48.57 -46.501)"/><path class="a" d="M99.235,48.494l-.8,2.354a3.334,3.334,0,0,0-1.122-.214,3.386,3.386,0,0,0-2.7,1.258,5.819,5.819,0,0,1-.457.562v9.175H91.663V50.419a.861.861,0,0,0-.8-.589V48.253h2.6a.771.771,0,0,1,.694.8,5.837,5.837,0,0,1,3.159-.91A5.026,5.026,0,0,1,99.235,48.494Z" transform="translate(-41.097 -46.56)"/></g><path class="b" d="M51.982,52.986a6.57,6.57,0,0,1,.4,1.9,39.351,39.351,0,0,0,3.554,10.239,11.244,11.244,0,0,1,1.2,5.338c-.038,1.654-.016,3.309-.007,4.965a2.022,2.022,0,0,0,1.475,2.253c1.459.568,2.934,1.091,4.379,1.695.683.285.87.04.868-.639,0-2.282.009-4.566.011-6.848,0-3.311-.029-6.622.025-9.93a2.424,2.424,0,0,0-1.381-2.441,16.1,16.1,0,0,1-4.33-3.064,7.364,7.364,0,0,1-1.1-8.649,10.034,10.034,0,0,1,6.13-4.927c4.747-1.528,9.3-1.091,13.367,2.13,4.321,3.425,4.259,9.312-.031,12.8a13.139,13.139,0,0,1-7.612,2.857c-.808.057-1.046.333-1.044,1.177q.04,8.945,0,17.89a2.158,2.158,0,0,0,1.285,2.22c1.075.511,2.093,1.158,3.154,1.7,1.432.73,1.992.352,2-1.319.009-1.771.02-3.539,0-5.307-.009-.661.161-.858.837-.83a23.388,23.388,0,0,0,4.163.109c2.329-.316,3.592-1.721,3.676-4.247.069-2.08.085-4.164.207-6.239.1-1.685.136-1.478,1.309-1.566a2.024,2.024,0,0,0,1.847-2.187,11.76,11.76,0,0,0-.948-4.906,28.163,28.163,0,0,1-2.271-12.733c.029-.568-.009-1.143.04-1.709a3.587,3.587,0,0,0-1.881-3.58,25.68,25.68,0,0,0-9.287-3.665,2.06,2.06,0,0,1-1.071-.3h-4.66a17.492,17.492,0,0,1-2.2.226c-5.082.5-10.155,5.075-11.64,10.37a37.2,37.2,0,0,0-.473,3.789Z" transform="translate(-51.982 -35.174)"/></svg>